<svg xmlns="http://www.w3.org/2000/svg" xmlns:xlink="http://www.w3.org/1999/xlink" viewBox="0 0 318.75 260.64"><defs><style>.cls-1{mask:url(#mask);filter:url(#luminosity-noclip-5);}.cls-2,.cls-4,.cls-6,.cls-8{mix-blend-mode:multiply;}.cls-2{fill:url(#Áåçûìÿííûé_ãðàäèåíò_2);}.cls-3{mask:url(#mask-2);filter:url(#luminosity-noclip-6);}.cls-4{fill:url(#Áåçûìÿííûé_ãðàäèåíò_2-2);}.cls-5{mask:url(#mask-3);filter:url(#luminosity-noclip-7);}.cls-6{fill:url(#Áåçûìÿííûé_ãðàäèåíò_2-3);}.cls-7{mask:url(#mask-4);filter:url(#luminosity-noclip-8);}.cls-8{fill:url(#Áåçûìÿííûé_ãðàäèåíò_2-4);}.cls-9{isolation:isolate;}.cls-10,.cls-11,.cls-13{mix-blend-mode:color-dodge;}.cls-11,.cls-12{fill:#c8c8c8;}.cls-13{opacity:0.75;}.cls-14,.cls-15,.cls-16{fill:#78f0f0;}.cls-15,.cls-16,.cls-37{mix-blend-mode:screen;}.cls-15{opacity:0.5;}.cls-16{opacity:0.2;}.cls-17{fill:#7ef2ff;}.cls-18{fill:url(#Áåçûìÿííûé_ãðàäèåíò_4);}.cls-19{fill:url(#Áåçûìÿííûé_ãðàäèåíò_4-2);}.cls-20{mask:url(#mask-5);}.cls-21,.cls-26,.cls-30,.cls-34{opacity:0.47;}.cls-21{fill:url(#Áåçûìÿííûé_ãðàäèåíò_5);}.cls-22{fill:#ffc45b;}.cls-23{fill:url(#Áåçûìÿííûé_ãðàäèåíò_3);}.cls-24{fill:url(#Áåçûìÿííûé_ãðàäèåíò_4-3);}.cls-25{mask:url(#mask-6);}.cls-26{fill:url(#Áåçûìÿííûé_ãðàäèåíò_5-2);}.cls-27{fill:url(#Áåçûìÿííûé_ãðàäèåíò_3-2);}.cls-28{fill:url(#Áåçûìÿííûé_ãðàäèåíò_4-4);}.cls-29{mask:url(#mask-7);}.cls-30{fill:url(#Áåçûìÿííûé_ãðàäèåíò_5-3);}.cls-31{fill:url(#Áåçûìÿííûé_ãðàäèåíò_3-3);}.cls-32{fill:url(#Áåçûìÿííûé_ãðàäèåíò_4-5);}.cls-33{mask:url(#mask-8);}.cls-34{fill:url(#Áåçûìÿííûé_ãðàäèåíò_5-4);}.cls-35{fill:url(#Áåçûìÿííûé_ãðàäèåíò_4-6);}.cls-36{fill:url(#Áåçûìÿííûé_ãðàäèåíò_3-4);}.cls-37{fill:#fff;opacity:0.25;}.cls-38{filter:url(#luminosity-noclip-4);}.cls-39{filter:url(#luminosity-noclip-3);}.cls-40{filter:url(#luminosity-noclip-2);}.cls-41{filter:url(#luminosity-noclip);}</style><filter id="luminosity-noclip" x="155.85" y="-8394.87" width="23.58" height="32766" filterUnits="userSpaceOnUse" color-interpolation-filters="sRGB"/><mask id="mask" x="155.85" y="-8394.87" width="23.58" height="32766" maskUnits="userSpaceOnUse"><g class="cls-41"/></mask><linearGradient id="Áåçûìÿííûé_ãðàäèåíò_2" x1="-629.09" y1="-1128.7" x2="-607.34" y2="-1128.7" gradientTransform="matrix(-1.06, 0.65, 0.19, 1.39, -276.6, 2112.08)" gradientUnits="userSpaceOnUse"><stop offset="0" stop-color="#ccc"/><stop offset="1"/></linearGradient><filter id="luminosity-noclip-2" x="105.97" y="-8394.87" width="20.33" height="32766" filterUnits="userSpaceOnUse" color-interpolation-filters="sRGB"/><mask id="mask-2" x="105.97" y="-8394.87" width="20.33" height="32766" maskUnits="userSpaceOnUse"><g class="cls-40"/></mask><linearGradient id="Áåçûìÿííûé_ãðàäèåíò_2-2" x1="352.72" y1="202.49" x2="373.05" y2="202.49" gradientTransform="matrix(-1, 0, 0, 1, 479.02, 0)" xlink:href="#Áåçûìÿííûé_ãðàäèåíò_2"/><filter id="luminosity-noclip-3" x="98.11" y="-8394.87" width="23.57" height="32766" filterUnits="userSpaceOnUse" color-interpolation-filters="sRGB"/><mask id="mask-3" x="98.11" y="-8394.87" width="23.57" height="32766" maskUnits="userSpaceOnUse"><g class="cls-39"/></mask><linearGradient id="Áåçûìÿííûé_ãðàäèåíò_2-3" x1="-579.47" y1="-1155.52" x2="-557.71" y2="-1155.52" xlink:href="#Áåçûìÿííûé_ãðàäèåíò_2"/><filter id="luminosity-noclip-4" x="202.03" y="-8394.87" width="23.58" height="32766" filterUnits="userSpaceOnUse" color-interpolation-filters="sRGB"/><mask id="mask-4" x="202.03" y="-8394.87" width="23.58" height="32766" maskUnits="userSpaceOnUse"><g class="cls-38"/></mask><linearGradient id="Áåçûìÿííûé_ãðàäèåíò_2-4" x1="-676.38" y1="-1150.17" x2="-654.62" y2="-1150.17" xlink:href="#Áåçûìÿííûé_ãðàäèåíò_2"/><linearGradient id="Áåçûìÿííûé_ãðàäèåíò_4" x1="-1719.55" y1="236.94" x2="-1680.13" y2="188.77" gradientTransform="matrix(0.92, 0.04, 0.04, 1.09, 1714.09, -13.52)" gradientUnits="userSpaceOnUse"><stop offset="0" stop-color="#0f4dff"/><stop offset="1" stop-color="#0fe7ff"/></linearGradient><linearGradient id="Áåçûìÿííûé_ãðàäèåíò_4-2" x1="405.92" y1="207.58" x2="463.42" y2="207.58" gradientTransform="matrix(-0.92, -0.04, -0.26, 1.08, 625.03, -65.87)" xlink:href="#Áåçûìÿííûé_ãðàäèåíò_4"/><filter id="luminosity-noclip-5" x="155.85" y="139.13" width="23.58" height="15.59" filterUnits="userSpaceOnUse" color-interpolation-filters="sRGB"/><mask id="mask-5" x="155.85" y="139.13" width="23.58" height="15.59" maskUnits="userSpaceOnUse"><g class="cls-1"><path class="cls-2" d="M155.89,152.54c.53,3,6.21,2.89,12.7-.21s11.33-8,10.8-11-6.21-2.89-12.7.21S155.37,149.55,155.89,152.54Z"/></g></mask><linearGradient id="Áåçûìÿííûé_ãðàäèåíò_5" x1="-629.09" y1="-1128.7" x2="-607.34" y2="-1128.7" gradientTransform="matrix(-1.06, 0.65, 0.19, 1.39, -276.6, 2112.08)" gradientUnits="userSpaceOnUse"><stop offset="0" stop-color="#e9e9e9"/><stop offset="1" stop-color="#fffffe"/></linearGradient><linearGradient id="Áåçûìÿííûé_ãðàäèåíò_3" x1="426.41" y1="209.03" x2="434.71" y2="209.03" gradientTransform="matrix(-0.92, -0.04, -0.26, 1.08, 625.03, -65.87)" gradientUnits="userSpaceOnUse"><stop offset="0" stop-color="#ffce80"/><stop offset="1" stop-color="#ffc45b"/></linearGradient><linearGradient id="Áåçûìÿííûé_ãðàäèåíò_4-3" x1="337.88" y1="201.58" x2="360.86" y2="173.49" gradientTransform="matrix(-1, 0, 0, 1, 479.02, 0)" xlink:href="#Áåçûìÿííûé_ãðàäèåíò_4"/><filter id="luminosity-noclip-6" x="105.97" y="196.38" width="20.33" height="12.23" filterUnits="userSpaceOnUse" color-interpolation-filters="sRGB"/><mask id="mask-6" x="105.97" y="196.38" width="20.33" height="12.23" maskUnits="userSpaceOnUse"><g class="cls-3"><path class="cls-4" d="M106,203.9a19.07,19.07,0,0,0,11.36,4.71c5.51-3.07,9.41-7.35,8.94-10.05-.53-3-6.21-2.9-12.7.2A29.7,29.7,0,0,0,106,203.9Z"/></g></mask><linearGradient id="Áåçûìÿííûé_ãðàäèåíò_5-2" x1="352.72" y1="202.49" x2="373.05" y2="202.49" gradientTransform="matrix(-1, 0, 0, 1, 479.02, 0)" xlink:href="#Áåçûìÿííûé_ãðàäèåíò_5"/><linearGradient id="Áåçûìÿííûé_ãðàäèåíò_3-2" x1="468.69" y1="263.46" x2="476.99" y2="263.46" xlink:href="#Áåçûìÿííûé_ãðàäèåíò_3"/><linearGradient id="Áåçûìÿííûé_ãðàäèåíò_4-4" x1="324.94" y1="145.16" x2="384.06" y2="145.16" gradientTransform="matrix(-1, 0, 0, 1, 479.02, 0)" xlink:href="#Áåçûìÿííûé_ãðàäèåíò_4"/><filter id="luminosity-noclip-7" x="98.11" y="134.18" width="23.57" height="15.59" filterUnits="userSpaceOnUse" color-interpolation-filters="sRGB"/><mask id="mask-7" x="98.11" y="134.18" width="23.57" height="15.59" maskUnits="userSpaceOnUse"><g class="cls-5"><path class="cls-6" d="M98.15,147.58c.52,3,6.21,2.9,12.7-.2s11.32-8,10.79-11-6.21-2.89-12.7.2S97.62,144.6,98.15,147.58Z"/></g></mask><linearGradient id="Áåçûìÿííûé_ãðàäèåíò_5-3" x1="-579.47" y1="-1155.52" x2="-557.71" y2="-1155.52" xlink:href="#Áåçûìÿííûé_ãðàäèåíò_5"/><linearGradient id="Áåçûìÿííûé_ãðàäèåíò_3-3" x1="490.47" y1="208.31" x2="498.77" y2="208.31" xlink:href="#Áåçûìÿííûé_ãðàäèåíò_3"/><linearGradient id="Áåçûìÿííûé_ãðàäèåíò_4-5" x1="366.5" y1="159.25" x2="435.17" y2="159.25" gradientTransform="matrix(-0.92, -0.04, -0.26, 1.08, 625.03, -65.87)" xlink:href="#Áåçûìÿííûé_ãðàäèåíò_4"/><filter id="luminosity-noclip-8" x="202.03" y="78.69" width="23.58" height="15.59" filterUnits="userSpaceOnUse" color-interpolation-filters="sRGB"/><mask id="mask-8" x="202.03" y="78.69" width="23.58" height="15.59" maskUnits="userSpaceOnUse"><g class="cls-7"><path class="cls-8" d="M202.07,92.09c.53,3,6.21,2.9,12.7-.2s11.32-8,10.8-11-6.21-2.89-12.7.2S201.54,89.11,202.07,92.09Z"/></g></mask><linearGradient id="Áåçûìÿííûé_ãðàäèåíò_5-4" x1="-676.38" y1="-1150.17" x2="-654.62" y2="-1150.17" xlink:href="#Áåçûìÿííûé_ãðàäèåíò_5"/><linearGradient id="Áåçûìÿííûé_ãðàäèåíò_4-6" x1="-1661.39" y1="219.43" x2="-1591.26" y2="163.81" xlink:href="#Áåçûìÿííûé_ãðàäèåíò_4"/><linearGradient id="Áåçûìÿííûé_ãðàäèåíò_3-4" x1="392.13" y1="153.51" x2="400.42" y2="153.51" xlink:href="#Áåçûìÿííûé_ãðàäèåíò_3"/></defs><g class="cls-9"><g id="Camada_2" data-name="Camada 2"><g id="Camada_2-2" data-name="Camada 2"><g class="cls-10"><path class="cls-11" d="M158.73,77.78,2.79,168.41l157,90.62,156-90.63Zm1,180.52L4.05,168.41,158.73,78.52l155.69,89.89Z"/><path class="cls-11" d="M236.41,149.94l-20.2,11.74L182.11,142l35.77-20.79L161.33,88.55l-56.2,32.65L142,142.48l-40.62,23.6L72.14,149.21,29.42,174l43,24.83L80.84,194,163,241.42,229.11,203l7.63,4.4,49.45-28.74Zm-20.19,12.47L257.1,186l-28,16.26-40.88-23.6ZM106.4,121.2l54.93-31.92,55.29,31.92-35.15,20.42-19.06-11-19.79,11.49ZM180.84,142l-19.15,11.13-18.43-10.64,19.15-11.13ZM72.42,198.12,30.69,174l41.46-24.09,28.59,16.51L67.07,186,80.2,193.6Zm8.41-4.89L68.34,186l33-19.2,12.5,7.21ZM163,240.69,81.47,193.6,115.15,174,102,166.45l40.62-23.6,19.06,11,19.79-11.5,34.1,19.69L187,178.68l41.52,24Zm73.7-34-7-4L258.37,186l-41.52-24,19.57-11.38,48.5,28Z"/><path class="cls-11" d="M123.74,201.18l34.54,19.94,34.3-19.94-34.53-19.93Zm67.57,0-33,19.2L125,201.18l33-19.2Z"/></g><path class="cls-11" d="M317.66,167.26a8.2,8.2,0,0,0-5.21,0,1.2,1.2,0,0,0,0,2.28,4.26,4.26,0,0,0,2.62.42,4.31,4.31,0,0,0,2.59-.42A1.21,1.21,0,0,0,317.66,167.26Z"/><path class="cls-11" d="M156.77,79.66a4.34,4.34,0,0,0,3.94,0c.7-.41.94-1,.73-1.5.21-.53,0-1.11-.74-1.52a4.34,4.34,0,0,0-3.94,0c-.7.41-.94,1-.73,1.5C155.81,78.67,156.06,79.25,156.77,79.66Z"/><path class="cls-11" d="M6,167.27a4.3,4.3,0,0,0-2.61-.43,4.25,4.25,0,0,0-2.6.43,1.21,1.21,0,0,0,0,2.28,4.3,4.3,0,0,0,2.61.43,4.25,4.25,0,0,0,2.6-.43A1.21,1.21,0,0,0,6,167.27Z"/><path class="cls-11" d="M161.71,257.16a4.31,4.31,0,0,0-3.94,0c-.71.4-.94,1-.73,1.5-.21.53,0,1.1.74,1.51a4.36,4.36,0,0,0,3.95,0c.7-.41.94-1,.72-1.51C162.66,258.14,162.42,257.56,161.71,257.16Z"/><path class="cls-11" d="M288.15,177.54a8.08,8.08,0,0,0-5.2,0,1.2,1.2,0,0,0,0,2.28,8.11,8.11,0,0,0,5.21,0A1.2,1.2,0,0,0,288.15,177.54Z"/><path class="cls-11" d="M103.34,164.94a4.34,4.34,0,0,0-3.94,0,1.55,1.55,0,0,0-.28.2,1.89,1.89,0,0,0-.35.17,1.2,1.2,0,0,0,0,2.28l.35.17a2.83,2.83,0,0,0,.28.2,4.36,4.36,0,0,0,4,0c.7-.41.94-1,.72-1.51C104.29,165.92,104.05,165.35,103.34,164.94Z"/><path class="cls-11" d="M159.35,87.4c-.71.41-.94,1-.73,1.51-.21.53,0,1.1.75,1.51a4.34,4.34,0,0,0,3.94,0c.7-.41.94-1,.72-1.51.21-.52,0-1.1-.74-1.51A4.37,4.37,0,0,0,159.35,87.4Z"/><path class="cls-11" d="M219.85,120.06a8.11,8.11,0,0,0-5.21,0,1.21,1.21,0,0,0,0,2.28,4.3,4.3,0,0,0,2.61.43,4.25,4.25,0,0,0,2.6-.43A1.2,1.2,0,0,0,219.85,120.06Z"/><path class="cls-11" d="M184.07,140.85a2.28,2.28,0,0,0-.35-.17,2.26,2.26,0,0,0-.28-.2,4.34,4.34,0,0,0-3.94,0l-.29.2a2.69,2.69,0,0,0-.34.17,1.2,1.2,0,0,0,0,2.28,2.26,2.26,0,0,0,.35.17,2.83,2.83,0,0,0,.28.2,4.36,4.36,0,0,0,4,0,2.83,2.83,0,0,0,.28-.2,2.26,2.26,0,0,0,.35-.17A1.2,1.2,0,0,0,184.07,140.85Z"/><path class="cls-11" d="M190.21,179.82a1.21,1.21,0,0,0,0-2.28,8.11,8.11,0,0,0-5.21,0,1.21,1.21,0,0,0,0,2.28,8.11,8.11,0,0,0,5.21,0Z"/><path class="cls-11" d="M160.43,129.47c-.71.41-.94,1-.73,1.51-.21.53,0,1.1.75,1.51a4.34,4.34,0,0,0,3.94,0c.7-.41.94-1,.73-1.51.2-.52,0-1.1-.75-1.51A4.34,4.34,0,0,0,160.43,129.47Z"/><path class="cls-11" d="M108.37,120.06a4.31,4.31,0,0,0-2.61-.43,4.25,4.25,0,0,0-2.6.43,1.2,1.2,0,0,0,0,2.28,4.3,4.3,0,0,0,2.61.43,4.28,4.28,0,0,0,2.6-.43A1.21,1.21,0,0,0,108.37,120.06Z"/><path class="cls-11" d="M145.22,141.34l-.35-.17a3.39,3.39,0,0,0-.28-.2,4.36,4.36,0,0,0-4,0,2.83,2.83,0,0,0-.28.2,2.26,2.26,0,0,0-.35.17,1.2,1.2,0,0,0,0,2.28,2.69,2.69,0,0,0,.34.17,2.11,2.11,0,0,0,.29.2,4.34,4.34,0,0,0,3.94,0,2.11,2.11,0,0,0,.29-.2,3.59,3.59,0,0,0,.34-.17A1.2,1.2,0,0,0,145.22,141.34Z"/><path class="cls-11" d="M70.18,151.08a4.34,4.34,0,0,0,3.94,0c.71-.41.95-1,.73-1.51.21-.52,0-1.1-.74-1.51a4.36,4.36,0,0,0-4,0c-.7.41-.94,1-.72,1.51C69.23,150.1,69.47,150.67,70.18,151.08Z"/><path class="cls-11" d="M32.65,172.89a4.28,4.28,0,0,0-2.6-.43,4.25,4.25,0,0,0-2.6.43,1.2,1.2,0,0,0,0,2.28,4.3,4.3,0,0,0,2.61.43,4.28,4.28,0,0,0,2.6-.43A1.2,1.2,0,0,0,32.65,172.89Z"/><path class="cls-11" d="M74.38,197a4.34,4.34,0,0,0-3.94,0c-.71.41-.94,1-.72,1.52-.21.52,0,1.09.74,1.5a4.36,4.36,0,0,0,4,0c.7-.41.94-1,.72-1.52C75.33,198,75.09,197.39,74.38,197Z"/><path class="cls-11" d="M70.31,187.16a1.2,1.2,0,0,0,0-2.28,4.3,4.3,0,0,0-2.61-.43,4.28,4.28,0,0,0-2.6.43,1.2,1.2,0,0,0,0,2.28,4.28,4.28,0,0,0,2.6.43A4.25,4.25,0,0,0,70.31,187.16Z"/><path class="cls-11" d="M159.73,155a4.34,4.34,0,0,0,3.94,0c.71-.41.94-1,.73-1.51.21-.53,0-1.1-.75-1.51a4.34,4.34,0,0,0-3.94,0c-.7.41-.94,1-.73,1.51C158.78,154,159,154.59,159.73,155Z"/><path class="cls-11" d="M117.11,172.89a4.34,4.34,0,0,0-2.6-.42,4.23,4.23,0,0,0-2.61.42,1.2,1.2,0,0,0,0,2.28,4.28,4.28,0,0,0,2.6.43,4.21,4.21,0,0,0,2.61-.42A1.21,1.21,0,0,0,117.11,172.89Z"/><path class="cls-11" d="M83.44,192.46l-.35-.16a2.16,2.16,0,0,0-.29-.21,4.34,4.34,0,0,0-3.94,0,2.11,2.11,0,0,0-.29.2,2.26,2.26,0,0,0-.35.17,1.21,1.21,0,0,0,0,2.28,2.26,2.26,0,0,0,.35.17,2.11,2.11,0,0,0,.29.2,4.34,4.34,0,0,0,3.94,0,1.55,1.55,0,0,0,.28-.2l.35-.16A1.21,1.21,0,0,0,83.44,192.46Z"/><path class="cls-11" d="M165,239.55a4.31,4.31,0,0,0-3.94,0c-.7.4-.94,1-.73,1.5-.21.53,0,1.1.75,1.51a4.34,4.34,0,0,0,3.94,0c.7-.41.94-1,.72-1.51C165.94,240.53,165.7,240,165,239.55Z"/><path class="cls-11" d="M234.45,151.82a4.36,4.36,0,0,0,4,0c.7-.41.94-1,.72-1.51.21-.53,0-1.1-.74-1.51a4.34,4.34,0,0,0-3.94,0c-.71.41-.94,1-.73,1.51C233.5,150.83,233.74,151.41,234.45,151.82Z"/><path class="cls-11" d="M218.81,160.91a1.8,1.8,0,0,0-.34-.17,2.11,2.11,0,0,0-.29-.2,4.34,4.34,0,0,0-3.94,0,1.55,1.55,0,0,0-.28.2,1.63,1.63,0,0,0-.35.17,1.2,1.2,0,0,0,0,2.28l.35.16.28.21a4.36,4.36,0,0,0,3.95,0l.28-.21.35-.16A1.2,1.2,0,0,0,218.81,160.91Z"/><path class="cls-11" d="M260.33,184.88a8.11,8.11,0,0,0-5.21,0,1.2,1.2,0,0,0,0,2.28,8.08,8.08,0,0,0,5.2,0A1.2,1.2,0,0,0,260.33,184.88Z"/><path class="cls-11" d="M231.71,201.51l-.35-.16a1.67,1.67,0,0,0-.29-.21,4.34,4.34,0,0,0-3.94,0,2.83,2.83,0,0,0-.28.2l-.35.17a1.2,1.2,0,0,0,0,2.28,1.8,1.8,0,0,0,.34.17,2.11,2.11,0,0,0,.29.2,4.34,4.34,0,0,0,3.94,0,1.55,1.55,0,0,0,.28-.2,2.26,2.26,0,0,0,.35-.17A1.2,1.2,0,0,0,231.71,201.51Z"/><path class="cls-11" d="M238.7,205.54a4.34,4.34,0,0,0-3.94,0c-.71.41-.95,1-.73,1.51-.21.53,0,1.1.74,1.51a4.34,4.34,0,0,0,3.94,0c.71-.41.95-1,.73-1.51C239.65,206.53,239.41,206,238.7,205.54Z"/><path class="cls-11" d="M194.54,200a4.18,4.18,0,0,0-2.6-.42,4.23,4.23,0,0,0-2.61.42,1.2,1.2,0,0,0,0,2.28,8.23,8.23,0,0,0,5.22,0A1.21,1.21,0,0,0,194.54,200Z"/><path class="cls-11" d="M160.25,222.26c.71-.41.95-1,.73-1.52.2-.52,0-1.09-.75-1.5a4.34,4.34,0,0,0-3.94,0c-.71.41-.94,1-.72,1.52-.21.52,0,1.09.74,1.5A4.34,4.34,0,0,0,160.25,222.26Z"/><path class="cls-11" d="M156.09,183.12a4.31,4.31,0,0,0,3.94,0c.71-.41.94-1,.73-1.51.2-.52,0-1.1-.75-1.5a4.31,4.31,0,0,0-3.94,0c-.71.41-.94,1-.73,1.51C155.14,182.14,155.38,182.72,156.09,183.12Z"/><path class="cls-11" d="M127,200a4.21,4.21,0,0,0-2.6-.42,4.26,4.26,0,0,0-2.62.42,1.21,1.21,0,0,0,0,2.28,4.25,4.25,0,0,0,2.6.43,4.23,4.23,0,0,0,2.61-.42A1.21,1.21,0,0,0,127,200Z"/><g class="cls-10"><path class="cls-12" d="M254.37,126.54a7.64,7.64,0,0,1-3.76-.91,2.76,2.76,0,0,1,0-5.14,7.54,7.54,0,0,1,3.75-.91,7.7,7.7,0,0,1,3.75.9,3.07,3.07,0,0,1,1.77,2.58,3,3,0,0,1-1.75,2.57A7.54,7.54,0,0,1,254.37,126.54Zm0-5.57a6.25,6.25,0,0,0-3,.72,1.77,1.77,0,0,0-1.06,1.36,1.81,1.81,0,0,0,1.07,1.38,6.32,6.32,0,0,0,3.06.72,6.25,6.25,0,0,0,3.05-.72,1.42,1.42,0,0,0,0-2.74A6.28,6.28,0,0,0,254.35,121Z"/></g><g class="cls-10"><path class="cls-12" d="M45,210.79a7.72,7.72,0,0,1-3.76-.91,3.07,3.07,0,0,1-1.77-2.58,3,3,0,0,1,1.75-2.57,8.18,8.18,0,0,1,7.5,0,2.76,2.76,0,0,1,0,5.14A7.6,7.6,0,0,1,45,210.79Zm0-5.58a6.25,6.25,0,0,0-3,.72c-.67.39-1.06.89-1,1.37A1.78,1.78,0,0,0,42,208.67a6.16,6.16,0,0,0,3.06.72,6.31,6.31,0,0,0,3.05-.72,1.42,1.42,0,0,0,0-2.74A6.32,6.32,0,0,0,45,205.21Z"/></g><g class="cls-10"><path class="cls-12" d="M97.66,242.38a7.72,7.72,0,0,1-3.76-.91,3.07,3.07,0,0,1-1.77-2.58,3,3,0,0,1,1.75-2.57,8.18,8.18,0,0,1,7.5,0,2.77,2.77,0,0,1,0,5.15A7.71,7.71,0,0,1,97.66,242.38Zm0-5.58a6.36,6.36,0,0,0-3,.72,1.42,1.42,0,0,0,0,2.74,6.18,6.18,0,0,0,3.06.72,6.31,6.31,0,0,0,3-.72,1.76,1.76,0,0,0,1.05-1.36,1.81,1.81,0,0,0-1.07-1.38A6.43,6.43,0,0,0,97.63,236.8Z"/></g><g class="cls-10"><path class="cls-12" d="M111.9,197.16a7.57,7.57,0,0,1-3.75-.91,2.76,2.76,0,0,1,0-5.15,8.18,8.18,0,0,1,7.5,0,2.76,2.76,0,0,1,0,5.15A7.54,7.54,0,0,1,111.9,197.16Zm0-5.58a6.25,6.25,0,0,0-3,.73c-.67.39-1.06.88-1.06,1.36a1.78,1.78,0,0,0,1.07,1.37,6.76,6.76,0,0,0,6.11,0c.67-.39,1.06-.88,1-1.36a1.81,1.81,0,0,0-1.07-1.38A6.36,6.36,0,0,0,111.88,191.58Z"/></g><g class="cls-10"><path class="cls-12" d="M92,135a7.68,7.68,0,0,1-3.75-.91,2.76,2.76,0,0,1,0-5.15,8.18,8.18,0,0,1,7.5,0,2.76,2.76,0,0,1,0,5.15A7.65,7.65,0,0,1,92,135Zm0-5.58a6.25,6.25,0,0,0-3.05.73c-.67.39-1.06.88-1.06,1.36A1.78,1.78,0,0,0,89,132.84a6.84,6.84,0,0,0,6.11,0c.67-.39,1.06-.88,1-1.36a1.81,1.81,0,0,0-1.07-1.38A6.36,6.36,0,0,0,92,129.38Z"/></g><g class="cls-10"><path class="cls-12" d="M71,118.49a7.64,7.64,0,0,1-3.76-.91,2.77,2.77,0,0,1,0-5.15,8.18,8.18,0,0,1,7.5,0,2.76,2.76,0,0,1,0,5.15A7.54,7.54,0,0,1,71,118.49Zm0-5.57a6.25,6.25,0,0,0-3,.72c-.68.39-1.06.88-1.06,1.36A1.78,1.78,0,0,0,68,116.37a6.76,6.76,0,0,0,6.11,0A1.74,1.74,0,0,0,75.12,115a1.78,1.78,0,0,0-1.07-1.37A6.28,6.28,0,0,0,71,112.92Z"/></g><g class="cls-10"><path class="cls-12" d="M207.3,207.69a7.61,7.61,0,0,1-3.76-.91,2.76,2.76,0,0,1,0-5.15,8.18,8.18,0,0,1,7.5,0,2.76,2.76,0,0,1,0,5.15A7.64,7.64,0,0,1,207.3,207.69Zm0-5.58a6.25,6.25,0,0,0-3.05.73c-.67.39-1.06.88-1.06,1.36a1.78,1.78,0,0,0,1.07,1.37,6.76,6.76,0,0,0,6.11,0c.67-.39,1.06-.88,1-1.36a1.81,1.81,0,0,0-1.07-1.38A6.36,6.36,0,0,0,207.27,202.11Z"/></g><g class="cls-10"><path class="cls-12" d="M274.81,208.93a7.57,7.57,0,0,1-3.75-.91,2.76,2.76,0,0,1,0-5.15,8.18,8.18,0,0,1,7.5,0,2.76,2.76,0,0,1,0,5.15A7.65,7.65,0,0,1,274.81,208.93Zm0-5.58a6.25,6.25,0,0,0-3.05.73c-.68.39-1.06.88-1.06,1.36a1.78,1.78,0,0,0,1.07,1.37,6.84,6.84,0,0,0,6.11,0,1.76,1.76,0,0,0,1.05-1.36,1.81,1.81,0,0,0-1.07-1.38A6.39,6.39,0,0,0,274.79,203.35Z"/></g><g class="cls-13"><path class="cls-14" d="M166.17,3.06a3.65,3.65,0,0,0-1.65,2.85c0,1,.75,1.46,1.66.94A3.61,3.61,0,0,0,167.82,4c0-1-.74-1.47-1.65-.95Z"/><path class="cls-14" d="M160.89,6.11A3.65,3.65,0,0,0,159.25,9c0,1,.75,1.46,1.66.93a3.6,3.6,0,0,0,1.64-2.84c0-1-.74-1.47-1.66-.94Z"/><path class="cls-14" d="M155.62,9.16A3.58,3.58,0,0,0,154,12c0,1,.74,1.46,1.65.94a3.62,3.62,0,0,0,1.65-2.84c0-1-.75-1.47-1.66-.94Z"/><path class="cls-14" d="M150.35,12.2A3.6,3.6,0,0,0,148.71,15c0,1.05.74,1.47,1.65.94A3.6,3.6,0,0,0,152,13.14c0-1.05-.74-1.47-1.65-.94Z"/><path class="cls-14" d="M145.07,15.25a3.59,3.59,0,0,0-1.63,2.84c0,1,.74,1.46,1.64.94a3.62,3.62,0,0,0,1.65-2.84c0-1.05-.74-1.47-1.66-.94Z"/></g><g class="cls-13"><path class="cls-14" d="M141.39,30.94a3.59,3.59,0,0,0-1.64,2.85c0,1,.74,1.46,1.65.93a3.61,3.61,0,0,0,1.65-2.84c0-1.05-.75-1.46-1.66-.94Z"/><path class="cls-14" d="M136.12,34a3.65,3.65,0,0,0-1.65,2.85c0,1,.75,1.46,1.66.94a3.63,3.63,0,0,0,1.64-2.84c0-1-.74-1.47-1.65-1Z"/><path class="cls-14" d="M130.84,37a3.65,3.65,0,0,0-1.64,2.85c0,1,.75,1.46,1.65.93A3.62,3.62,0,0,0,132.5,38c0-1-.74-1.47-1.66-.94Z"/><path class="cls-14" d="M125.57,40.07a3.64,3.64,0,0,0-1.64,2.85c0,1,.74,1.46,1.65.94A3.61,3.61,0,0,0,127.22,41c0-1.05-.74-1.47-1.65-1Z"/><path class="cls-14" d="M120.3,43.12A3.6,3.6,0,0,0,118.66,46c0,1,.74,1.47,1.65.94A3.63,3.63,0,0,0,122,44.06c0-1.05-.74-1.47-1.65-.94Z"/></g><g class="cls-13"><path class="cls-14" d="M112,151.06a3.58,3.58,0,0,0-1.64,2.84c0,1,.74,1.46,1.65.94a3.61,3.61,0,0,0,1.64-2.84c0-1.05-.74-1.47-1.65-.94Z"/><path class="cls-14" d="M106.69,154.1A3.63,3.63,0,0,0,105,157c0,1,.75,1.46,1.66.93a3.6,3.6,0,0,0,1.64-2.84c0-1-.74-1.47-1.65-.94Z"/><path class="cls-14" d="M101.41,157.15A3.58,3.58,0,0,0,99.77,160c0,1,.75,1.46,1.65.94a3.62,3.62,0,0,0,1.65-2.84c0-1.05-.74-1.47-1.66-.94Z"/><path class="cls-14" d="M96.14,160.19A3.6,3.6,0,0,0,94.5,163c0,1.05.74,1.47,1.65.94a3.6,3.6,0,0,0,1.64-2.84c0-1-.74-1.47-1.65-.94Z"/><path class="cls-14" d="M90.86,163.24a3.59,3.59,0,0,0-1.63,2.84c0,1,.74,1.46,1.64.94a3.62,3.62,0,0,0,1.65-2.84c0-1.05-.74-1.47-1.66-.94Z"/></g><g class="cls-13"><path class="cls-14" d="M155.32,228.48a3.61,3.61,0,0,0-1.64,2.85c0,1,.74,1.46,1.65.94a3.61,3.61,0,0,0,1.64-2.84c0-1.05-.74-1.47-1.65-1Z"/><path class="cls-14" d="M150.05,231.53a3.63,3.63,0,0,0-1.65,2.85c0,1,.75,1.46,1.66.93a3.63,3.63,0,0,0,1.64-2.84c0-1.05-.74-1.47-1.65-.94Z"/><path class="cls-14" d="M144.77,234.57a3.61,3.61,0,0,0-1.64,2.85c0,1,.75,1.46,1.65.94a3.62,3.62,0,0,0,1.65-2.84c0-1.05-.74-1.48-1.66-1Z"/><path class="cls-14" d="M139.5,237.62a3.6,3.6,0,0,0-1.64,2.84c0,1,.74,1.46,1.65.94a3.63,3.63,0,0,0,1.64-2.84c0-1.05-.74-1.47-1.65-.94Z"/><path class="cls-14" d="M134.22,240.66a3.62,3.62,0,0,0-1.63,2.85c0,1,.74,1.46,1.64.94a3.62,3.62,0,0,0,1.65-2.84c0-1.05-.74-1.47-1.66-1Z"/></g><g class="cls-13"><path class="cls-14" d="M80.37,183.88a3.65,3.65,0,0,0-1.65,2.85c0,1.05.75,1.46,1.66.94A3.61,3.61,0,0,0,82,184.83c0-1.05-.74-1.47-1.65-1Z"/><path class="cls-14" d="M75.09,186.93a3.65,3.65,0,0,0-1.64,2.85c0,1,.75,1.46,1.66.93a3.62,3.62,0,0,0,1.64-2.84c0-1.05-.74-1.47-1.66-.94Z"/><path class="cls-14" d="M69.82,190a3.61,3.61,0,0,0-1.64,2.85c0,1,.74,1.46,1.65.94a3.62,3.62,0,0,0,1.65-2.84c0-1-.75-1.47-1.66-.95Z"/><path class="cls-14" d="M64.55,193a3.6,3.6,0,0,0-1.64,2.84c0,1,.74,1.47,1.65.94A3.62,3.62,0,0,0,66.2,194c0-1.05-.74-1.47-1.65-.94Z"/><path class="cls-14" d="M59.27,196.06a3.62,3.62,0,0,0-1.63,2.85c0,1,.74,1.46,1.64.94A3.62,3.62,0,0,0,60.93,197c0-1-.74-1.47-1.66-.95Z"/></g><g class="cls-13"><path class="cls-14" d="M149.27.23a3.6,3.6,0,0,0-1.64,2.84c0,1,.74,1.46,1.65.94a3.64,3.64,0,0,0,1.65-2.84c0-1-.75-1.47-1.66-.94Z"/><path class="cls-14" d="M144,3.27a3.64,3.64,0,0,0-1.64,2.85c0,1,.74,1.46,1.65.94a3.63,3.63,0,0,0,1.64-2.84c0-1-.74-1.47-1.65-.95Z"/><path class="cls-14" d="M138.73,6.31a3.65,3.65,0,0,0-1.65,2.85c0,1,.75,1.46,1.66.94a3.63,3.63,0,0,0,1.64-2.84c0-1-.74-1.47-1.65-1Z"/><path class="cls-14" d="M133.46,9.36a3.62,3.62,0,0,0-1.65,2.85c0,1,.74,1.46,1.66.93a3.59,3.59,0,0,0,1.63-2.84c0-1.05-.74-1.47-1.64-.94Z"/><path class="cls-14" d="M128.18,12.4a3.61,3.61,0,0,0-1.64,2.85c0,1,.74,1.46,1.65.94a3.64,3.64,0,0,0,1.65-2.84c0-1-.75-1.47-1.66-.95Z"/><path class="cls-14" d="M122.91,15.45a3.62,3.62,0,0,0-1.65,2.85c0,1,.74,1.46,1.66.93a3.59,3.59,0,0,0,1.64-2.84c0-1.05-.74-1.47-1.65-.94Z"/><path class="cls-14" d="M117.63,18.49A3.66,3.66,0,0,0,116,21.34c0,1,.75,1.46,1.65.94a3.64,3.64,0,0,0,1.65-2.84c0-1.05-.75-1.47-1.66-1Z"/><path class="cls-14" d="M112.36,21.54a3.58,3.58,0,0,0-1.64,2.85c0,1,.74,1.45,1.65.93A3.64,3.64,0,0,0,114,22.48c0-1.05-.75-1.47-1.66-.94Z"/></g><g class="cls-13"><path class="cls-14" d="M108,89.27a3.62,3.62,0,0,0-1.63,2.85c0,1,.74,1.46,1.64.94a3.62,3.62,0,0,0,1.65-2.84c0-1-.74-1.47-1.66-1Z"/><path class="cls-14" d="M102.68,92.32A3.6,3.6,0,0,0,101,95.16c0,1,.74,1.46,1.65.94a3.61,3.61,0,0,0,1.64-2.84c0-1.05-.74-1.47-1.65-.94Z"/><path class="cls-14" d="M97.41,95.36a3.64,3.64,0,0,0-1.64,2.85c0,1,.74,1.46,1.65.93a3.6,3.6,0,0,0,1.64-2.83c0-1-.74-1.47-1.65-1Z"/><path class="cls-14" d="M92.14,98.4a3.62,3.62,0,0,0-1.65,2.85c0,1,.75,1.46,1.66.94a3.63,3.63,0,0,0,1.64-2.84c0-1-.74-1.47-1.65-.95Z"/><path class="cls-14" d="M86.86,101.45a3.64,3.64,0,0,0-1.64,2.85c0,1,.74,1.46,1.66.93a3.64,3.64,0,0,0,1.64-2.84c0-1-.75-1.47-1.66-.94Z"/><path class="cls-14" d="M81.59,104.49A3.61,3.61,0,0,0,80,107.34c0,1,.74,1.46,1.65.94a3.64,3.64,0,0,0,1.65-2.84c0-1-.75-1.47-1.66-1Z"/><path class="cls-14" d="M76.32,107.54a3.63,3.63,0,0,0-1.65,2.85c0,1,.75,1.46,1.66.93A3.62,3.62,0,0,0,78,108.48c0-1-.74-1.47-1.65-.94Z"/><path class="cls-14" d="M71,110.58a3.66,3.66,0,0,0-1.64,2.85c0,1,.75,1.46,1.65.94a3.62,3.62,0,0,0,1.65-2.84c0-1-.74-1.47-1.66-1Z"/></g><g class="cls-13"><path class="cls-14" d="M254.1,170.21a3.59,3.59,0,0,0-1.63,2.84c0,1,.74,1.47,1.64.94a3.62,3.62,0,0,0,1.65-2.84c0-1.05-.74-1.47-1.66-.94Z"/><path class="cls-14" d="M248.83,173.25a3.64,3.64,0,0,0-1.64,2.85c0,1,.74,1.46,1.65.94a3.61,3.61,0,0,0,1.64-2.84c0-1-.74-1.47-1.65-.95Z"/><path class="cls-14" d="M243.56,176.3a3.6,3.6,0,0,0-1.64,2.84c0,1,.74,1.47,1.65.94a3.63,3.63,0,0,0,1.64-2.84c0-1.05-.74-1.47-1.65-.94Z"/><path class="cls-14" d="M238.29,179.34a3.62,3.62,0,0,0-1.65,2.85c0,1,.74,1.46,1.66.93a3.6,3.6,0,0,0,1.64-2.83c0-1-.74-1.47-1.65-.95Z"/><path class="cls-14" d="M233,182.38a3.64,3.64,0,0,0-1.64,2.85c0,1,.74,1.47,1.65.94a3.64,3.64,0,0,0,1.65-2.84c0-1.05-.75-1.47-1.66-1Z"/><path class="cls-14" d="M227.74,185.43a3.61,3.61,0,0,0-1.64,2.85c0,1,.74,1.46,1.65.93a3.59,3.59,0,0,0,1.64-2.84c0-1.05-.74-1.46-1.65-.94Z"/><path class="cls-14" d="M222.47,188.47a3.65,3.65,0,0,0-1.65,2.85c0,1,.75,1.46,1.66.94a3.63,3.63,0,0,0,1.64-2.84c0-1-.75-1.47-1.65-.95Z"/><path class="cls-14" d="M217.19,191.52a3.65,3.65,0,0,0-1.64,2.85c0,1,.75,1.46,1.65.93a3.62,3.62,0,0,0,1.65-2.84c0-1.05-.74-1.47-1.66-.94Z"/></g><g class="cls-13"><path class="cls-14" d="M248.14,47.73a3.63,3.63,0,0,0-1.65,2.84c0,1,.75,1.47,1.66.94a3.64,3.64,0,0,0,1.64-2.85c0-1-.74-1.46-1.65-.93Z"/><path class="cls-14" d="M248.12,41.67a3.61,3.61,0,0,0-1.65,2.84c0,1.05.75,1.46,1.66.94a3.61,3.61,0,0,0,1.64-2.84c0-1-.74-1.47-1.65-.94Z"/><path class="cls-14" d="M248.1,35.61a3.58,3.58,0,0,0-1.64,2.85c0,1,.74,1.45,1.65.93a3.58,3.58,0,0,0,1.64-2.84c0-1-.74-1.47-1.65-.94Z"/><path class="cls-14" d="M248.08,29.55a3.64,3.64,0,0,0-1.64,2.84c0,1,.75,1.47,1.65,1a3.63,3.63,0,0,0,1.65-2.85c0-1-.74-1.47-1.66-.94Z"/><path class="cls-14" d="M248.07,23.49a3.63,3.63,0,0,0-1.65,2.84c0,1.05.75,1.47,1.66,1a3.65,3.65,0,0,0,1.64-2.85c0-1.05-.74-1.47-1.65-.94Z"/></g><g class="cls-13"><path class="cls-14" d="M119.3,83.65a3.64,3.64,0,0,0-1.65,2.84c0,1.05.75,1.47,1.66,1A3.64,3.64,0,0,0,121,84.59c0-1-.74-1.46-1.65-.94Z"/><path class="cls-14" d="M119.28,77.59a3.65,3.65,0,0,0-1.65,2.85c0,1,.75,1.46,1.66.94a3.61,3.61,0,0,0,1.64-2.84c0-1.05-.74-1.47-1.65-1Z"/><path class="cls-14" d="M119.26,71.53a3.61,3.61,0,0,0-1.64,2.85c0,1,.74,1.46,1.65.94a3.58,3.58,0,0,0,1.64-2.84c0-1-.74-1.47-1.65-1Z"/><path class="cls-14" d="M119.24,65.47a3.66,3.66,0,0,0-1.64,2.85c0,1,.75,1.47,1.65.94a3.6,3.6,0,0,0,1.65-2.84c0-1-.74-1.47-1.66-1Z"/><path class="cls-14" d="M119.23,59.41a3.65,3.65,0,0,0-1.65,2.85c0,1,.75,1.47,1.66.94a3.62,3.62,0,0,0,1.64-2.84c0-1-.74-1.47-1.65-1Z"/></g><path class="cls-15" d="M236.26,6.05c1.82-1,3.31-.21,3.31,1.89l.05,18.92a7.23,7.23,0,0,1-3.28,5.7L186.9,61.1c-1.82,1-3.3.21-3.31-1.89l-.05-18.93a7.26,7.26,0,0,1,3.29-5.69Z"/><path class="cls-16" d="M236.26,6.05c1.82-1,3.31-.21,3.31,1.89l.05,18.92a7.23,7.23,0,0,1-3.28,5.7L186.9,61.1c-1.82,1-3.3.21-3.31-1.89l-.05-18.93a7.26,7.26,0,0,1,3.29-5.69Z"/><polygon class="cls-14" points="232.87 12.94 190.25 37.54 190.25 39.06 232.88 14.46 232.87 12.94 232.87 12.94"/><polygon class="cls-14" points="232.88 16.73 190.26 41.33 190.26 42.85 232.89 18.24 232.88 16.73 232.88 16.73"/><polygon class="cls-14" points="232.9 20.52 190.27 45.12 190.28 46.64 232.9 22.03 232.9 20.52 232.9 20.52"/><polygon class="cls-14" points="232.91 24.3 190.28 48.91 190.29 50.42 232.91 25.81 232.91 24.3 232.91 24.3"/><polygon class="cls-14" points="232.92 28.09 190.29 52.7 190.3 54.21 232.92 29.6 232.92 28.09 232.92 28.09"/><path class="cls-15" d="M185.42,62c-1.38,0-2.28-1.1-2.29-2.8l0-18.93a7.64,7.64,0,0,1,3.52-6.1L236,5.65a3.47,3.47,0,0,1,1.71-.52c1.39,0,2.29,1.1,2.3,2.8l.05,18.93a7.64,7.64,0,0,1-3.52,6.1L187.14,61.5A3.48,3.48,0,0,1,185.42,62Zm52.32-56a2.68,2.68,0,0,0-1.25.39L187.06,35A6.73,6.73,0,0,0,184,40.28l.05,18.93c0,1.18.51,1.88,1.36,1.88a2.62,2.62,0,0,0,1.25-.39L236.1,32.16a6.72,6.72,0,0,0,3.06-5.29l0-18.93C239.1,6.76,238.59,6.06,237.74,6.06Z"/><polygon class="cls-17" points="133.44 159.6 167.9 93.36 174.46 99.58 182.15 101.87 147.84 168.3 140.27 166.34 133.44 159.6"/><polygon class="cls-17" points="113.73 171.52 100.39 163.86 89.66 169.04 82.03 173.71 95.68 181.67 105 172.07 113.73 171.52"/><polygon class="cls-17" points="228.52 106.7 214.87 98.74 217.19 90.61 230.1 84.58 234.05 91.64 228.52 106.7"/><polygon class="cls-17" points="184.29 132.13 182.72 145.62 172.51 154.16 132.97 131.05 142.39 122.06 143.97 108.58 184.29 132.13"/><polygon class="cls-17" points="95.48 178.68 81.82 170.72 90.82 155.74 107.61 158.58 95.48 178.68"/><path class="cls-17" d="M100.07,163.57l-8.72.55L82,173.71s2.61,27.76,24.3,27,36-21.53,40-29.87l-7.88-2.11-6.23-6.67s-8.37,15.35-20.21,15.27S100.07,163.57,100.07,163.57Z"/><path class="cls-17" d="M140.43,106.5,138.86,120l-9.4,9.37S102,122.41,99.69,160.94l-9.19.57-8.68,9.21s-4.69-27.07,14.06-48.37S129,101.57,140.43,106.5Z"/><path class="cls-17" d="M183.06,99.51s8.36-17.05,22.42-14.13c9.15,1.9,9.39,13.36,9.39,13.36l9.22-9.18,8.74-.6s0-24.75-22.66-27.56-41.41,29.52-41.41,29.52l6.2,6Z"/><path class="cls-17" d="M184.67,146.7,186.09,133s11.55,6.53,22.92-11.06c5.71-8.82,5.61-20,5.61-20l10.82-9.58,7.7-.74s2.44,26.34-14.23,46.26-32.59,22.29-44.08,17.71Z"/><polygon class="cls-18" points="147.1 167.56 181.56 101.31 188.11 107.54 195.8 109.83 161.5 176.26 153.93 174.3 147.1 167.56"/><polygon class="cls-19" points="197.94 140.08 196.37 153.57 186.16 162.12 146.62 139.01 156.05 130.02 157.62 116.54 197.94 140.08"/><g class="cls-20"><path class="cls-21" d="M155.89,152.54c.53,3,6.21,2.89,12.7-.21s11.33-8,10.8-11-6.21-2.89-12.7.21S155.37,149.55,155.89,152.54Z"/></g><path class="cls-22" d="M172.54,138.75a4.19,4.19,0,0,0,1.77,5.29,3.39,3.39,0,0,0,4.87-1.55,4.19,4.19,0,0,0-1.77-5.29A3.39,3.39,0,0,0,172.54,138.75Z"/><path class="cls-23" d="M173.22,139.26a4.22,4.22,0,0,0,1.77,5.3,3.4,3.4,0,0,0,4.87-1.55,4.2,4.2,0,0,0-1.77-5.3A3.4,3.4,0,0,0,173.22,139.26Z"/><path class="cls-24" d="M95.69,181.67S97.05,196.13,106,203.9a19.07,19.07,0,0,0,11.36,4.71,19.39,19.39,0,0,0,2.66.06c21.7-.75,36-21.54,40-29.87l-7.87-2.12L145.87,170s-8.36,15.34-20.2,15.27-12-13.77-12-13.77l-8.71.56Z"/><g class="cls-25"><path class="cls-26" d="M106,203.9a19.07,19.07,0,0,0,11.36,4.71c5.51-3.07,9.41-7.35,8.94-10.05-.53-3-6.21-2.9-12.7.2A29.7,29.7,0,0,0,106,203.9Z"/></g><path class="cls-22" d="M119.7,195.68a4.23,4.23,0,0,0,1.77,5.3,3.42,3.42,0,0,0,4.88-1.56,4.21,4.21,0,0,0-1.77-5.29A3.4,3.4,0,0,0,119.7,195.68Z"/><path class="cls-27" d="M120.38,196.19a4.22,4.22,0,0,0,1.78,5.3,3.41,3.41,0,0,0,4.87-1.55,4.21,4.21,0,0,0-1.77-5.3A3.41,3.41,0,0,0,120.38,196.19Z"/><path class="cls-28" d="M154.08,114.46l-1.57,13.47-9.39,9.37s-27.45-6.93-29.77,31.59l-9.2.58-8.67,9.21s-4.69-27.07,14.06-48.37S142.64,109.52,154.08,114.46Z"/><g class="cls-29"><path class="cls-30" d="M98.15,147.58c.52,3,6.21,2.9,12.7-.2s11.32-8,10.79-11-6.21-2.89-12.7.2S97.62,144.6,98.15,147.58Z"/></g><path class="cls-22" d="M114.06,135.19a4.23,4.23,0,0,0,1.77,5.3,3.41,3.41,0,0,0,4.88-1.55,4.21,4.21,0,0,0-1.77-5.3A3.41,3.41,0,0,0,114.06,135.19Z"/><path class="cls-31" d="M114.75,135.7a4.21,4.21,0,0,0,1.77,5.3,3.41,3.41,0,0,0,4.87-1.55,4.21,4.21,0,0,0-1.77-5.3A3.4,3.4,0,0,0,114.75,135.7Z"/><path class="cls-32" d="M196.72,107.46s8.36-17,22.42-14.13c9.15,1.9,9.38,13.37,9.38,13.37l9.23-9.19,8.74-.59s0-24.75-22.66-27.56-41.41,29.52-41.41,29.52l6.2,6Z"/><g class="cls-33"><path class="cls-34" d="M202.07,92.09c.53,3,6.21,2.9,12.7-.2s11.32-8,10.8-11-6.21-2.89-12.7.2S201.54,89.11,202.07,92.09Z"/></g><path class="cls-35" d="M198.33,154.65l1.41-13.7s11.55,6.53,22.93-11.06c5.71-8.82,5.6-20,5.6-20l10.82-9.57,7.71-.74s2.44,26.33-14.23,46.26-32.6,22.29-44.08,17.71Z"/><path class="cls-22" d="M218.34,80.28a4.2,4.2,0,0,0,1.77,5.3A3.4,3.4,0,0,0,225,84a4.22,4.22,0,0,0-1.77-5.3A3.4,3.4,0,0,0,218.34,80.28Z"/><path class="cls-36" d="M219,80.8a4.21,4.21,0,0,0,1.77,5.3,3.41,3.41,0,0,0,4.87-1.55,4.2,4.2,0,0,0-1.77-5.3A3.4,3.4,0,0,0,219,80.8Z"/><path class="cls-15" d="M91.33,38c1.82-1,3.3-.2,3.3,1.88l.07,22.73a7.25,7.25,0,0,1-3.29,5.69L71.64,79.71c-1.82,1.05-3.3.21-3.31-1.88l-.06-22.72a7.24,7.24,0,0,1,3.29-5.69Z"/><path class="cls-15" d="M70.16,80.63c-1.39,0-2.29-1.1-2.29-2.8l-.06-22.72A7.64,7.64,0,0,1,71.33,49L91.1,37.6a3.42,3.42,0,0,1,1.71-.51c1.38,0,2.28,1.09,2.29,2.79l.06,22.73a7.63,7.63,0,0,1-3.51,6.09L71.88,80.11A3.41,3.41,0,0,1,70.16,80.63ZM92.81,38a2.51,2.51,0,0,0-1.25.39L71.79,49.82a6.77,6.77,0,0,0-3.06,5.28l.07,22.73c0,1.17.51,1.87,1.36,1.87a2.65,2.65,0,0,0,1.25-.39L91.18,67.89a6.7,6.7,0,0,0,3-5.28l-.06-22.72C94.16,38.72,93.66,38,92.81,38Z"/><path class="cls-15" d="M106.2,46.06c1.82-1.06,3.29-.21,3.3,1.88l.06,22.72a7.21,7.21,0,0,1-3.28,5.69L86.51,87.76c-1.82,1.06-3.3.22-3.31-1.87l-.06-22.73a7.23,7.23,0,0,1,3.28-5.69Z"/><path class="cls-15" d="M85,88.68c-1.39,0-2.29-1.1-2.29-2.79l-.07-22.73a7.64,7.64,0,0,1,3.52-6.09L106,45.65a3.45,3.45,0,0,1,1.71-.51c1.39,0,2.29,1.1,2.29,2.8L110,70.66a7.65,7.65,0,0,1-3.52,6.09L86.74,88.17A3.45,3.45,0,0,1,85,88.68Zm22.64-42.61a2.51,2.51,0,0,0-1.24.39L86.66,57.87a6.77,6.77,0,0,0-3.06,5.29l.06,22.72c0,1.17.52,1.87,1.37,1.87a2.57,2.57,0,0,0,1.25-.39L106.05,76a6.76,6.76,0,0,0,3-5.28L109,47.94C109,46.77,108.52,46.07,107.67,46.07Z"/><path class="cls-15" d="M265.39,60.92c1.82-1.05,3.3-.2,3.3,1.88l.06,22.73a7.21,7.21,0,0,1-3.28,5.69L245.7,102.63c-1.82,1.05-3.3.21-3.31-1.88L242.33,78a7.21,7.21,0,0,1,3.29-5.68Z"/><path class="cls-15" d="M244.22,103.55c-1.39,0-2.29-1.1-2.29-2.8L241.86,78a7.68,7.68,0,0,1,3.52-6.1l19.78-11.41a3.42,3.42,0,0,1,1.71-.51c1.38,0,2.28,1.09,2.29,2.79l.06,22.73a7.67,7.67,0,0,1-3.51,6.09L245.93,103A3.47,3.47,0,0,1,244.22,103.55Zm22.65-42.62a2.62,2.62,0,0,0-1.25.39L245.85,72.74A6.77,6.77,0,0,0,242.79,78l.07,22.73c0,1.17.51,1.87,1.36,1.87a2.65,2.65,0,0,0,1.25-.39l19.77-11.42a6.7,6.7,0,0,0,3.05-5.28l-.06-22.73C268.22,61.63,267.71,60.93,266.87,60.93Z"/><path class="cls-15" d="M227,28.71c1.83-1.05,3.3-.2,3.31,1.88l.06,22.73A7.24,7.24,0,0,1,227.07,59L207.3,70.42c-1.82,1-3.31.21-3.31-1.88l-.07-22.73a7.26,7.26,0,0,1,3.29-5.68Z"/><path class="cls-15" d="M205.81,71.34c-1.38,0-2.28-1.1-2.29-2.8l-.06-22.72a7.65,7.65,0,0,1,3.52-6.1l19.77-11.41a3.45,3.45,0,0,1,1.71-.51c1.39,0,2.29,1.09,2.29,2.79l.06,22.73a7.64,7.64,0,0,1-3.51,6.09L207.53,70.82A3.48,3.48,0,0,1,205.81,71.34Zm22.65-42.62a2.61,2.61,0,0,0-1.24.39L207.44,40.53a6.73,6.73,0,0,0-3.05,5.28l.06,22.73c0,1.17.52,1.87,1.36,1.87a2.62,2.62,0,0,0,1.25-.39L226.84,58.6a6.75,6.75,0,0,0,3-5.28l-.07-22.72C229.82,29.42,229.31,28.72,228.46,28.72Z"/><path class="cls-15" d="M274.76,70.1c10.23,1.4,37.77-10.56,42.56-12.69a213.93,213.93,0,0,1-1,49.63,205.23,205.23,0,0,1-12,47.58,166.55,166.55,0,0,1-29,48.54c-12.47.17-22.47-4.76-29.75-14.66-5.89-8-10-19.32-12.27-33.56-3.46-21.86-1.38-44.06-.89-48.49C237.27,103,266.21,82.19,274.76,70.1Z"/><path class="cls-37" d="M273.16,198.49c-10-.37-17.86-4.55-23.88-12.74-5.45-7.43-9.29-18-11.42-31.53-3-19-1.72-38.23-1.07-45.21,7.85-5.64,30.67-22.46,40.18-34.16,9.65-.16,26.4-6.52,36.28-10.63a220.31,220.31,0,0,1-1.55,42.21,200.86,200.86,0,0,1-11.77,46.5A162.2,162.2,0,0,1,273.16,198.49Z"/><path class="cls-15" d="M274.65,203.63c-12.32,0-22.24-5-29.49-14.86-5.94-8.09-10.09-19.45-12.35-33.75-3.5-22.11-1.36-44.38-.9-48.62l0-.21.17-.12c3.41-2.42,33.61-24,42.27-36.24l.17-.23.28,0a13.54,13.54,0,0,0,1.77.11c11.25,0,35.74-10.63,40.53-12.77l.58-.25.07.62a214.36,214.36,0,0,1-1,49.75,205.69,205.69,0,0,1-12.08,47.69,167,167,0,0,1-29.05,48.67l-.14.16Zm-41.84-96.92c-.5,4.69-2.51,26.51.92,48.16,2.23,14.16,6.33,25.38,12.18,33.35,7.06,9.61,16.73,14.48,28.74,14.48h.42a165.8,165.8,0,0,0,28.75-48.24,204.42,204.42,0,0,0,12-47.47,214.9,214.9,0,0,0,1.09-48.89c-6,2.63-29.29,12.58-40.33,12.58a13.72,13.72,0,0,1-1.62-.08C266.31,82.61,238.75,102.49,232.81,106.71Z"/></g></g></g></svg>