<?xml version="1.0" encoding="UTF-8"?>
<svg xmlns="http://www.w3.org/2000/svg" width="400.014" height="327.268" viewBox="0 0 400.014 327.268">
  <defs>
    <clipPath id="a">
      <circle class="a" cx="81.899" cy="81.899" r="81.899" />
    </clipPath>
    <style>.a,.c,.g,.i,.k,.l,.m,.n,.p{fill:none}.c{stroke:#9f9cf9;stroke-linecap:round;stroke-width:.731px}.c,.g,.k,.l,.m,.n,.p{stroke-miterlimit:10}.f{fill:#ff5276}.g,.i{stroke:#fff}.g,.i,.k,.l,.m,.n{stroke-width:2px}.j{fill:#6d6df7}.k{stroke:#000}.l{stroke:#00d5c7}.m{stroke:#ff6279}.n{stroke:#ffd000}.p{stroke:#0357ff}</style>
  </defs>
  <g clip-path="url(#a)" transform="translate(236.215 40.646)">
    <path class="a" d="M153.164-11.145h13.018V1.873h-13.018z" />
    <path class="c" d="M159.673-6.263v3.255M161.301-4.636h-3.255" />
    <path class="a" d="M153.164 1.874h13.018v13.018h-13.018z" />
    <path class="c" d="M159.673 6.756v3.255M161.301 8.383h-3.255" />
    <path class="a" d="M153.164 14.892h13.018V27.91h-13.018z" />
    <path class="c" d="M159.673 19.774v3.255M161.301 21.401h-3.255" />
    <path class="a" d="M153.164 27.911h13.018v13.018h-13.018z" />
    <path class="c" d="M159.673 32.793v3.255M161.301 34.42h-3.255" />
    <path class="a" d="M153.164 40.929h13.018v13.018h-13.018z" />
    <path class="c" d="M159.673 45.811v3.255M161.301 47.438h-3.255" />
    <path class="a" d="M153.164 53.947h13.018v13.018h-13.018z" />
    <path class="c" d="M159.673 58.829v3.255M161.301 60.456h-3.255" />
    <path class="a" d="M153.164 66.966h13.018v13.018h-13.018z" />
    <path class="c" d="M159.673 71.848v3.255M161.301 73.475h-3.255" />
    <path class="a" d="M153.164 79.984h13.018v13.018h-13.018z" />
    <path class="c" d="M159.673 84.866v3.255M161.301 86.493h-3.255" />
    <path class="a" d="M153.164 93.003h13.018v13.018h-13.018z" />
    <path class="c" d="M159.673 97.885v3.255M161.301 99.512h-3.255" />
    <path class="a" d="M153.164 106.021h13.018v13.018h-13.018z" />
    <path class="c" d="M159.673 110.903v3.255M161.301 112.53h-3.255" />
    <path class="a" d="M153.164 119.039h13.018v13.018h-13.018z" />
    <path class="c" d="M159.673 123.921v3.255M161.301 125.548h-3.255" />
    <path class="a" d="M153.164 132.058h13.018v13.018h-13.018z" />
    <path class="c" d="M159.673 136.94v3.255M161.301 138.567h-3.255" />
    <path class="a" d="M153.164 145.076h13.018v13.018h-13.018z" />
    <path class="c" d="M159.673 149.958v3.255M161.301 151.585h-3.255" />
    <path class="a" d="M153.164 158.095h13.018v13.018h-13.018z" />
    <path class="c" d="M159.673 162.977v3.255M161.301 164.604h-3.255" />
    <path class="a" d="M140.145-11.145h13.018V1.873h-13.018z" />
    <path class="c" d="M146.654-6.263v3.255M148.282-4.636h-3.255" />
    <path class="a" d="M140.145 1.874h13.018v13.018h-13.018z" />
    <path class="c" d="M146.654 6.756v3.255M148.282 8.383h-3.255" />
    <path class="a" d="M140.145 14.892h13.018V27.91h-13.018z" />
    <path class="c" d="M146.654 19.774v3.255M148.282 21.401h-3.255" />
    <path class="a" d="M140.145 27.911h13.018v13.018h-13.018z" />
    <path class="c" d="M146.654 32.793v3.255M148.282 34.42h-3.255" />
    <path class="a" d="M140.145 40.929h13.018v13.018h-13.018z" />
    <path class="c" d="M146.654 45.811v3.255M148.282 47.438h-3.255" />
    <path class="a" d="M140.145 53.947h13.018v13.018h-13.018z" />
    <path class="c" d="M146.654 58.829v3.255M148.282 60.456h-3.255" />
    <path class="a" d="M140.145 66.966h13.018v13.018h-13.018z" />
    <path class="c" d="M146.654 71.848v3.255M148.282 73.475h-3.255" />
    <path class="a" d="M140.145 79.984h13.018v13.018h-13.018z" />
    <path class="c" d="M146.654 84.866v3.255M148.282 86.493h-3.255" />
    <path class="a" d="M140.145 93.003h13.018v13.018h-13.018z" />
    <path class="c" d="M146.654 97.885v3.255M148.282 99.512h-3.255" />
    <path class="a" d="M140.145 106.021h13.018v13.018h-13.018z" />
    <path class="c" d="M146.654 110.903v3.255M148.282 112.53h-3.255" />
    <path class="a" d="M140.145 119.039h13.018v13.018h-13.018z" />
    <path class="c" d="M146.654 123.921v3.255M148.282 125.548h-3.255" />
    <path class="a" d="M140.145 132.058h13.018v13.018h-13.018z" />
    <path class="c" d="M146.654 136.94v3.255M148.282 138.567h-3.255" />
    <path class="a" d="M140.145 145.076h13.018v13.018h-13.018z" />
    <path class="c" d="M146.654 149.958v3.255M148.282 151.585h-3.255" />
    <path class="a" d="M140.145 158.095h13.018v13.018h-13.018z" />
    <path class="c" d="M146.654 162.977v3.255M148.282 164.604h-3.255" />
    <path class="a" d="M127.127-11.145h13.018V1.873h-13.018z" />
    <path class="c" d="M133.636-6.263v3.255M135.264-4.636h-3.255" />
    <path class="a" d="M127.127 1.874h13.018v13.018h-13.018z" />
    <path class="c" d="M133.636 6.756v3.255M135.264 8.383h-3.255" />
    <path class="a" d="M127.127 14.892h13.018V27.91h-13.018z" />
    <path class="c" d="M133.636 19.774v3.255M135.264 21.401h-3.255" />
    <path class="a" d="M127.127 27.911h13.018v13.018h-13.018z" />
    <path class="c" d="M133.636 32.793v3.255M135.264 34.42h-3.255" />
    <path class="a" d="M127.127 40.929h13.018v13.018h-13.018z" />
    <path class="c" d="M133.636 45.811v3.255M135.264 47.438h-3.255" />
    <path class="a" d="M127.127 53.947h13.018v13.018h-13.018z" />
    <path class="c" d="M133.636 58.829v3.255M135.264 60.456h-3.255" />
    <path class="a" d="M127.127 66.966h13.018v13.018h-13.018z" />
    <path class="c" d="M133.636 71.848v3.255M135.264 73.475h-3.255" />
    <path class="a" d="M127.127 79.984h13.018v13.018h-13.018z" />
    <path class="c" d="M133.636 84.866v3.255M135.264 86.493h-3.255" />
    <path class="a" d="M127.127 93.003h13.018v13.018h-13.018z" />
    <path class="c" d="M133.636 97.885v3.255M135.264 99.512h-3.255" />
    <path class="a" d="M127.127 106.021h13.018v13.018h-13.018z" />
    <path class="c" d="M133.636 110.903v3.255M135.264 112.53h-3.255" />
    <path class="a" d="M127.127 119.039h13.018v13.018h-13.018z" />
    <path class="c" d="M133.636 123.921v3.255M135.264 125.548h-3.255" />
    <path class="a" d="M127.127 132.058h13.018v13.018h-13.018z" />
    <path class="c" d="M133.636 136.94v3.255M135.264 138.567h-3.255" />
    <path class="a" d="M127.127 145.076h13.018v13.018h-13.018z" />
    <path class="c" d="M133.636 149.958v3.255M135.264 151.585h-3.255" />
    <path class="a" d="M127.127 158.095h13.018v13.018h-13.018z" />
    <path class="c" d="M133.636 162.977v3.255M135.264 164.604h-3.255" />
    <path class="a" d="M114.109-11.145h13.018V1.873h-13.018z" />
    <path class="c" d="M120.618-6.263v3.255M122.246-4.636h-3.255" />
    <path class="a" d="M114.109 1.874h13.018v13.018h-13.018z" />
    <path class="c" d="M120.618 6.756v3.255M122.246 8.383h-3.255" />
    <path class="a" d="M114.109 14.892h13.018V27.91h-13.018z" />
    <path class="c" d="M120.618 19.774v3.255M122.246 21.401h-3.255" />
    <path class="a" d="M114.109 27.911h13.018v13.018h-13.018z" />
    <path class="c" d="M120.618 32.793v3.255M122.246 34.42h-3.255" />
    <path class="a" d="M114.109 40.929h13.018v13.018h-13.018z" />
    <path class="c" d="M120.618 45.811v3.255M122.246 47.438h-3.255" />
    <path class="a" d="M114.109 53.947h13.018v13.018h-13.018z" />
    <path class="c" d="M120.618 58.829v3.255M122.246 60.456h-3.255" />
    <path class="a" d="M114.109 66.966h13.018v13.018h-13.018z" />
    <path class="c" d="M120.618 71.848v3.255M122.246 73.475h-3.255" />
    <path class="a" d="M114.109 79.984h13.018v13.018h-13.018z" />
    <path class="c" d="M120.618 84.866v3.255M122.246 86.493h-3.255" />
    <path class="a" d="M114.109 93.003h13.018v13.018h-13.018z" />
    <path class="c" d="M120.618 97.885v3.255M122.246 99.512h-3.255" />
    <path class="a" d="M114.109 106.021h13.018v13.018h-13.018z" />
    <path class="c" d="M120.618 110.903v3.255M122.246 112.53h-3.255" />
    <path class="a" d="M114.109 119.039h13.018v13.018h-13.018z" />
    <path class="c" d="M120.618 123.921v3.255M122.246 125.548h-3.255" />
    <path class="a" d="M114.109 132.058h13.018v13.018h-13.018z" />
    <path class="c" d="M120.618 136.94v3.255M122.246 138.567h-3.255" />
    <path class="a" d="M114.109 145.076h13.018v13.018h-13.018z" />
    <path class="c" d="M120.618 149.958v3.255M122.246 151.585h-3.255" />
    <path class="a" d="M114.109 158.095h13.018v13.018h-13.018z" />
    <path class="c" d="M120.618 162.977v3.255M122.246 164.604h-3.255" />
    <path class="a" d="M101.09-11.145h13.018V1.873H101.09z" />
    <path class="c" d="M107.599-6.263v3.255M109.227-4.636h-3.255" />
    <path class="a" d="M101.09 1.874h13.018v13.018H101.09z" />
    <path class="c" d="M107.599 6.756v3.255M109.227 8.383h-3.255" />
    <path class="a" d="M101.09 14.892h13.018V27.91H101.09z" />
    <path class="c" d="M107.599 19.774v3.255M109.227 21.401h-3.255" />
    <path class="a" d="M101.09 27.911h13.018v13.018H101.09z" />
    <path class="c" d="M107.599 32.793v3.255M109.227 34.42h-3.255" />
    <path class="a" d="M101.09 40.929h13.018v13.018H101.09z" />
    <path class="c" d="M107.599 45.811v3.255M109.227 47.438h-3.255" />
    <g>
      <path class="a" d="M101.09 53.947h13.018v13.018H101.09z" />
      <path class="c" d="M107.599 58.829v3.255M109.227 60.456h-3.255" />
    </g>
    <g>
      <path class="a" d="M101.09 66.966h13.018v13.018H101.09z" />
      <path class="c" d="M107.599 71.848v3.255M109.227 73.475h-3.255" />
    </g>
    <g>
      <path class="a" d="M101.09 79.984h13.018v13.018H101.09z" />
      <path class="c" d="M107.599 84.866v3.255M109.227 86.493h-3.255" />
    </g>
    <g>
      <path class="a" d="M101.09 93.003h13.018v13.018H101.09z" />
      <path class="c" d="M107.599 97.885v3.255M109.227 99.512h-3.255" />
    </g>
    <g>
      <path class="a" d="M101.09 106.021h13.018v13.018H101.09z" />
      <path class="c" d="M107.599 110.903v3.255M109.227 112.53h-3.255" />
    </g>
    <g>
      <path class="a" d="M101.09 119.039h13.018v13.018H101.09z" />
      <path class="c" d="M107.599 123.921v3.255M109.227 125.548h-3.255" />
    </g>
    <g>
      <path class="a" d="M101.09 132.058h13.018v13.018H101.09z" />
      <path class="c" d="M107.599 136.94v3.255M109.227 138.567h-3.255" />
    </g>
    <g>
      <path class="a" d="M101.09 145.076h13.018v13.018H101.09z" />
      <path class="c" d="M107.599 149.958v3.255M109.227 151.585h-3.255" />
    </g>
    <g>
      <path class="a" d="M101.09 158.095h13.018v13.018H101.09z" />
      <path class="c" d="M107.599 162.977v3.255M109.227 164.604h-3.255" />
    </g>
    <g>
      <path class="a" d="M88.072-11.145h13.018V1.873H88.072z" />
      <path class="c" d="M94.581-6.263v3.255M96.209-4.636h-3.255" />
    </g>
    <g>
      <path class="a" d="M88.072 1.874h13.018v13.018H88.072z" />
      <path class="c" d="M94.581 6.756v3.255M96.209 8.383h-3.255" />
    </g>
    <g>
      <path class="a" d="M88.072 14.892h13.018V27.91H88.072z" />
      <path class="c" d="M94.581 19.774v3.255M96.209 21.401h-3.255" />
    </g>
    <g>
      <path class="a" d="M88.072 27.911h13.018v13.018H88.072z" />
      <path class="c" d="M94.581 32.793v3.255M96.209 34.42h-3.255" />
    </g>
    <g>
      <path class="a" d="M88.072 40.929h13.018v13.018H88.072z" />
      <path class="c" d="M94.581 45.811v3.255M96.209 47.438h-3.255" />
    </g>
    <g>
      <path class="a" d="M88.072 53.947h13.018v13.018H88.072z" />
      <path class="c" d="M94.581 58.829v3.255M96.209 60.456h-3.255" />
    </g>
    <g>
      <path class="a" d="M88.072 66.966h13.018v13.018H88.072z" />
      <path class="c" d="M94.581 71.848v3.255M96.209 73.475h-3.255" />
    </g>
    <g>
      <path class="a" d="M88.072 79.984h13.018v13.018H88.072z" />
      <path class="c" d="M94.581 84.866v3.255M96.209 86.493h-3.255" />
    </g>
    <g>
      <path class="a" d="M88.072 93.003h13.018v13.018H88.072z" />
      <path class="c" d="M94.581 97.885v3.255M96.209 99.512h-3.255" />
    </g>
    <g>
      <path class="a" d="M88.072 106.021h13.018v13.018H88.072z" />
      <path class="c" d="M94.581 110.903v3.255M96.209 112.53h-3.255" />
    </g>
    <g>
      <path class="a" d="M88.072 119.039h13.018v13.018H88.072z" />
      <path class="c" d="M94.581 123.921v3.255M96.209 125.548h-3.255" />
    </g>
    <g>
      <path class="a" d="M88.072 132.058h13.018v13.018H88.072z" />
      <path class="c" d="M94.581 136.94v3.255M96.209 138.567h-3.255" />
    </g>
    <g>
      <path class="a" d="M88.072 145.076h13.018v13.018H88.072z" />
      <path class="c" d="M94.581 149.958v3.255M96.209 151.585h-3.255" />
    </g>
    <g>
      <path class="a" d="M88.072 158.095h13.018v13.018H88.072z" />
      <path class="c" d="M94.581 162.977v3.255M96.209 164.604h-3.255" />
    </g>
    <g>
      <path class="a" d="M75.053-11.145h13.018V1.873H75.053z" />
      <path class="c" d="M81.562-6.263v3.255M83.19-4.636h-3.255" />
    </g>
    <g>
      <path class="a" d="M75.053 1.874h13.018v13.018H75.053z" />
      <path class="c" d="M81.562 6.756v3.255M83.19 8.383h-3.255" />
    </g>
    <g>
      <path class="a" d="M75.053 14.892h13.018V27.91H75.053z" />
      <path class="c" d="M81.562 19.774v3.255M83.19 21.401h-3.255" />
    </g>
    <g>
      <path class="a" d="M75.053 27.911h13.018v13.018H75.053z" />
      <path class="c" d="M81.562 32.793v3.255M83.19 34.42h-3.255" />
    </g>
    <g>
      <path class="a" d="M75.053 40.929h13.018v13.018H75.053z" />
      <path class="c" d="M81.562 45.811v3.255M83.19 47.438h-3.255" />
    </g>
    <g>
      <path class="a" d="M75.053 53.947h13.018v13.018H75.053z" />
      <path class="c" d="M81.562 58.829v3.255M83.19 60.456h-3.255" />
    </g>
    <g>
      <path class="a" d="M75.053 66.966h13.018v13.018H75.053z" />
      <path class="c" d="M81.562 71.848v3.255M83.19 73.475h-3.255" />
    </g>
    <g>
      <path class="a" d="M75.053 79.984h13.018v13.018H75.053z" />
      <path class="c" d="M81.562 84.866v3.255M83.19 86.493h-3.255" />
    </g>
    <g>
      <path class="a" d="M75.053 93.003h13.018v13.018H75.053z" />
      <path class="c" d="M81.562 97.885v3.255M83.19 99.512h-3.255" />
    </g>
    <g>
      <path class="a" d="M75.053 106.021h13.018v13.018H75.053z" />
      <path class="c" d="M81.562 110.903v3.255M83.19 112.53h-3.255" />
    </g>
    <g>
      <path class="a" d="M75.053 119.039h13.018v13.018H75.053z" />
      <path class="c" d="M81.562 123.921v3.255M83.19 125.548h-3.255" />
    </g>
    <g>
      <path class="a" d="M75.053 132.058h13.018v13.018H75.053z" />
      <path class="c" d="M81.562 136.94v3.255M83.19 138.567h-3.255" />
    </g>
    <g>
      <path class="a" d="M75.053 145.076h13.018v13.018H75.053z" />
      <path class="c" d="M81.562 149.958v3.255M83.19 151.585h-3.255" />
    </g>
    <g>
      <path class="a" d="M75.053 158.095h13.018v13.018H75.053z" />
      <path class="c" d="M81.562 162.977v3.255M83.19 164.604h-3.255" />
    </g>
    <g>
      <path class="a" d="M62.035-11.145h13.018V1.873H62.035z" />
      <path class="c" d="M68.544-6.263v3.255M70.172-4.636h-3.255" />
    </g>
    <g>
      <path class="a" d="M62.035 1.874h13.018v13.018H62.035z" />
      <path class="c" d="M68.544 6.756v3.255M70.172 8.383h-3.255" />
    </g>
    <g>
      <path class="a" d="M62.035 14.892h13.018V27.91H62.035z" />
      <path class="c" d="M68.544 19.774v3.255M70.172 21.401h-3.255" />
    </g>
    <g>
      <path class="a" d="M62.035 27.911h13.018v13.018H62.035z" />
      <path class="c" d="M68.544 32.793v3.255M70.172 34.42h-3.255" />
    </g>
    <g>
      <path class="a" d="M62.035 40.929h13.018v13.018H62.035z" />
      <path class="c" d="M68.544 45.811v3.255M70.172 47.438h-3.255" />
    </g>
    <g>
      <path class="a" d="M62.035 53.947h13.018v13.018H62.035z" />
      <path class="c" d="M68.544 58.829v3.255M70.172 60.456h-3.255" />
    </g>
    <g>
      <path class="a" d="M62.035 66.966h13.018v13.018H62.035z" />
      <path class="c" d="M68.544 71.848v3.255M70.172 73.475h-3.255" />
    </g>
    <g>
      <path class="a" d="M62.035 79.984h13.018v13.018H62.035z" />
      <path class="c" d="M68.544 84.866v3.255M70.172 86.493h-3.255" />
    </g>
    <g>
      <path class="a" d="M62.035 93.003h13.018v13.018H62.035z" />
      <path class="c" d="M68.544 97.885v3.255M70.172 99.512h-3.255" />
    </g>
    <g>
      <path class="a" d="M62.035 106.021h13.018v13.018H62.035z" />
      <path class="c" d="M68.544 110.903v3.255M70.172 112.53h-3.255" />
    </g>
    <g>
      <path class="a" d="M62.035 119.039h13.018v13.018H62.035z" />
      <path class="c" d="M68.544 123.921v3.255M70.172 125.548h-3.255" />
    </g>
    <g>
      <path class="a" d="M62.035 132.058h13.018v13.018H62.035z" />
      <path class="c" d="M68.544 136.94v3.255M70.172 138.567h-3.255" />
    </g>
    <g>
      <path class="a" d="M62.035 145.076h13.018v13.018H62.035z" />
      <path class="c" d="M68.544 149.958v3.255M70.172 151.585h-3.255" />
    </g>
    <g>
      <path class="a" d="M62.035 158.095h13.018v13.018H62.035z" />
      <path class="c" d="M68.544 162.977v3.255M70.172 164.604h-3.255" />
    </g>
    <g>
      <path class="a" d="M49.017-11.145h13.018V1.873H49.017z" />
      <path class="c" d="M55.526-6.263v3.255M57.154-4.636h-3.255" />
    </g>
    <g>
      <path class="a" d="M49.017 1.874h13.018v13.018H49.017z" />
      <path class="c" d="M55.526 6.756v3.255M57.154 8.383h-3.255" />
    </g>
    <g>
      <path class="a" d="M49.017 14.892h13.018V27.91H49.017z" />
      <path class="c" d="M55.526 19.774v3.255M57.154 21.401h-3.255" />
    </g>
    <g>
      <path class="a" d="M49.017 27.911h13.018v13.018H49.017z" />
      <path class="c" d="M55.526 32.793v3.255M57.154 34.42h-3.255" />
    </g>
    <g>
      <path class="a" d="M49.017 40.929h13.018v13.018H49.017z" />
      <path class="c" d="M55.526 45.811v3.255M57.154 47.438h-3.255" />
    </g>
    <g>
      <path class="a" d="M49.017 53.947h13.018v13.018H49.017z" />
      <path class="c" d="M55.526 58.829v3.255M57.154 60.456h-3.255" />
    </g>
    <g>
      <path class="a" d="M49.017 66.966h13.018v13.018H49.017z" />
      <path class="c" d="M55.526 71.848v3.255M57.154 73.475h-3.255" />
    </g>
    <g>
      <path class="a" d="M49.017 79.984h13.018v13.018H49.017z" />
      <path class="c" d="M55.526 84.866v3.255M57.154 86.493h-3.255" />
    </g>
    <g>
      <path class="a" d="M49.017 93.003h13.018v13.018H49.017z" />
      <path class="c" d="M55.526 97.885v3.255M57.154 99.512h-3.255" />
    </g>
    <g>
      <path class="a" d="M49.017 106.021h13.018v13.018H49.017z" />
      <path class="c" d="M55.526 110.903v3.255M57.154 112.53h-3.255" />
    </g>
    <g>
      <path class="a" d="M49.017 119.039h13.018v13.018H49.017z" />
      <path class="c" d="M55.526 123.921v3.255M57.154 125.548h-3.255" />
    </g>
    <g>
      <path class="a" d="M49.017 132.058h13.018v13.018H49.017z" />
      <path class="c" d="M55.526 136.94v3.255M57.154 138.567h-3.255" />
    </g>
    <g>
      <path class="a" d="M49.017 145.076h13.018v13.018H49.017z" />
      <path class="c" d="M55.526 149.958v3.255M57.154 151.585h-3.255" />
    </g>
    <g>
      <path class="a" d="M49.017 158.095h13.018v13.018H49.017z" />
      <path class="c" d="M55.526 162.977v3.255M57.154 164.604h-3.255" />
    </g>
    <g>
      <path class="a" d="M35.998-11.145h13.018V1.873H35.998z" />
      <path class="c" d="M42.507-6.263v3.255M44.135-4.636H40.88" />
    </g>
    <g>
      <path class="a" d="M35.998 1.874h13.018v13.018H35.998z" />
      <path class="c" d="M42.507 6.756v3.255M44.135 8.383H40.88" />
    </g>
    <g>
      <path class="a" d="M35.998 14.892h13.018V27.91H35.998z" />
      <path class="c" d="M42.507 19.774v3.255M44.135 21.401H40.88" />
    </g>
    <g>
      <path class="a" d="M35.998 27.911h13.018v13.018H35.998z" />
      <path class="c" d="M42.507 32.793v3.255M44.135 34.42H40.88" />
    </g>
    <g>
      <path class="a" d="M35.998 40.929h13.018v13.018H35.998z" />
      <path class="c" d="M42.507 45.811v3.255M44.135 47.438H40.88" />
    </g>
    <g>
      <path class="a" d="M35.998 53.947h13.018v13.018H35.998z" />
      <path class="c" d="M42.507 58.829v3.255M44.135 60.456H40.88" />
    </g>
    <g>
      <path class="a" d="M35.998 66.966h13.018v13.018H35.998z" />
      <path class="c" d="M42.507 71.848v3.255M44.135 73.475H40.88" />
    </g>
    <g>
      <path class="a" d="M35.998 79.984h13.018v13.018H35.998z" />
      <path class="c" d="M42.507 84.866v3.255M44.135 86.493H40.88" />
    </g>
    <g>
      <path class="a" d="M35.998 93.003h13.018v13.018H35.998z" />
      <path class="c" d="M42.507 97.885v3.255M44.135 99.512H40.88" />
    </g>
    <g>
      <path class="a" d="M35.998 106.021h13.018v13.018H35.998z" />
      <path class="c" d="M42.507 110.903v3.255M44.135 112.53H40.88" />
    </g>
    <g>
      <path class="a" d="M35.998 119.039h13.018v13.018H35.998z" />
      <path class="c" d="M42.507 123.921v3.255M44.135 125.548H40.88" />
    </g>
    <g>
      <path class="a" d="M35.998 132.058h13.018v13.018H35.998z" />
      <path class="c" d="M42.507 136.94v3.255M44.135 138.567H40.88" />
    </g>
    <g>
      <path class="a" d="M35.998 145.076h13.018v13.018H35.998z" />
      <path class="c" d="M42.507 149.958v3.255M44.135 151.585H40.88" />
    </g>
    <g>
      <path class="a" d="M35.998 158.095h13.018v13.018H35.998z" />
      <path class="c" d="M42.507 162.977v3.255M44.135 164.604H40.88" />
    </g>
    <g>
      <path class="a" d="M22.98-11.145h13.018V1.873H22.98z" />
      <path class="c" d="M29.489-6.263v3.255M31.117-4.636h-3.255" />
    </g>
    <g>
      <path class="a" d="M22.98 1.874h13.018v13.018H22.98z" />
      <path class="c" d="M29.489 6.756v3.255M31.117 8.383h-3.255" />
    </g>
    <g>
      <path class="a" d="M22.98 14.892h13.018V27.91H22.98z" />
      <path class="c" d="M29.489 19.774v3.255M31.117 21.401h-3.255" />
    </g>
    <g>
      <path class="a" d="M22.98 27.911h13.018v13.018H22.98z" />
      <path class="c" d="M29.489 32.793v3.255M31.117 34.42h-3.255" />
    </g>
    <g>
      <path class="a" d="M22.98 40.929h13.018v13.018H22.98z" />
      <path class="c" d="M29.489 45.811v3.255M31.117 47.438h-3.255" />
    </g>
    <g>
      <path class="a" d="M22.98 53.947h13.018v13.018H22.98z" />
      <path class="c" d="M29.489 58.829v3.255M31.117 60.456h-3.255" />
    </g>
    <g>
      <path class="a" d="M22.98 66.966h13.018v13.018H22.98z" />
      <path class="c" d="M29.489 71.848v3.255M31.117 73.475h-3.255" />
    </g>
    <g>
      <path class="a" d="M22.98 79.984h13.018v13.018H22.98z" />
      <path class="c" d="M29.489 84.866v3.255M31.117 86.493h-3.255" />
    </g>
    <g>
      <path class="a" d="M22.98 93.003h13.018v13.018H22.98z" />
      <path class="c" d="M29.489 97.885v3.255M31.117 99.512h-3.255" />
    </g>
    <g>
      <path class="a" d="M22.98 106.021h13.018v13.018H22.98z" />
      <path class="c" d="M29.489 110.903v3.255M31.117 112.53h-3.255" />
    </g>
    <g>
      <path class="a" d="M22.98 119.039h13.018v13.018H22.98z" />
      <path class="c" d="M29.489 123.921v3.255M31.117 125.548h-3.255" />
    </g>
    <g>
      <path class="a" d="M22.98 132.058h13.018v13.018H22.98z" />
      <path class="c" d="M29.489 136.94v3.255M31.117 138.567h-3.255" />
    </g>
    <g>
      <path class="a" d="M22.98 145.076h13.018v13.018H22.98z" />
      <path class="c" d="M29.489 149.958v3.255M31.117 151.585h-3.255" />
    </g>
    <g>
      <path class="a" d="M22.98 158.095h13.018v13.018H22.98z" />
      <path class="c" d="M29.489 162.977v3.255M31.117 164.604h-3.255" />
    </g>
    <g>
      <path class="a" d="M9.961-11.145h13.018V1.873H9.961z" />
      <path class="c" d="M16.47-6.263v3.255M18.098-4.636h-3.255" />
    </g>
    <g>
      <path class="a" d="M9.961 1.874h13.018v13.018H9.961z" />
      <path class="c" d="M16.47 6.756v3.255M18.098 8.383h-3.255" />
    </g>
    <g>
      <path class="a" d="M9.961 14.892h13.018V27.91H9.961z" />
      <path class="c" d="M16.47 19.774v3.255M18.098 21.401h-3.255" />
    </g>
    <g>
      <path class="a" d="M9.961 27.911h13.018v13.018H9.961z" />
      <path class="c" d="M16.47 32.793v3.255M18.098 34.42h-3.255" />
    </g>
    <g>
      <path class="a" d="M9.961 40.929h13.018v13.018H9.961z" />
      <path class="c" d="M16.47 45.811v3.255M18.098 47.438h-3.255" />
    </g>
    <g>
      <path class="a" d="M9.961 53.947h13.018v13.018H9.961z" />
      <path class="c" d="M16.47 58.829v3.255M18.098 60.456h-3.255" />
    </g>
    <g>
      <path class="a" d="M9.961 66.966h13.018v13.018H9.961z" />
      <path class="c" d="M16.47 71.848v3.255M18.098 73.475h-3.255" />
    </g>
    <g>
      <path class="a" d="M9.961 79.984h13.018v13.018H9.961z" />
      <path class="c" d="M16.47 84.866v3.255M18.098 86.493h-3.255" />
    </g>
    <g>
      <path class="a" d="M9.961 93.003h13.018v13.018H9.961z" />
      <path class="c" d="M16.47 97.885v3.255M18.098 99.512h-3.255" />
    </g>
    <g>
      <path class="a" d="M9.961 106.021h13.018v13.018H9.961z" />
      <path class="c" d="M16.47 110.903v3.255M18.098 112.53h-3.255" />
    </g>
    <g>
      <path class="a" d="M9.961 119.039h13.018v13.018H9.961z" />
      <path class="c" d="M16.47 123.921v3.255M18.098 125.548h-3.255" />
    </g>
    <g>
      <path class="a" d="M9.961 132.058h13.018v13.018H9.961z" />
      <path class="c" d="M16.47 136.94v3.255M18.098 138.567h-3.255" />
    </g>
    <g>
      <path class="a" d="M9.961 145.076h13.018v13.018H9.961z" />
      <path class="c" d="M16.47 149.958v3.255M18.098 151.585h-3.255" />
    </g>
    <g>
      <path class="a" d="M9.961 158.095h13.018v13.018H9.961z" />
      <path class="c" d="M16.47 162.977v3.255M18.098 164.604h-3.255" />
    </g>
    <g>
      <path class="a" d="M-3.057-11.145H9.961V1.873H-3.057z" />
      <path class="c" d="M3.452-6.263v3.255M5.08-4.636H1.825" />
    </g>
    <g>
      <path class="a" d="M-3.057 1.874H9.961v13.018H-3.057z" />
      <path class="c" d="M3.452 6.756v3.255M5.08 8.383H1.825" />
    </g>
    <g>
      <path class="a" d="M-3.057 14.892H9.961V27.91H-3.057z" />
      <path class="c" d="M3.452 19.774v3.255M5.08 21.401H1.825" />
    </g>
    <g>
      <path class="a" d="M-3.057 27.911H9.961v13.018H-3.057z" />
      <path class="c" d="M3.452 32.793v3.255M5.08 34.42H1.825" />
    </g>
    <g>
      <path class="a" d="M-3.057 40.929H9.961v13.018H-3.057z" />
      <path class="c" d="M3.452 45.811v3.255M5.08 47.438H1.825" />
    </g>
    <g>
      <path class="a" d="M-3.057 53.947H9.961v13.018H-3.057z" />
      <path class="c" d="M3.452 58.829v3.255M5.08 60.456H1.825" />
    </g>
    <g>
      <path class="a" d="M-3.057 66.966H9.961v13.018H-3.057z" />
      <path class="c" d="M3.452 71.848v3.255M5.08 73.475H1.825" />
    </g>
    <g>
      <path class="a" d="M-3.057 79.984H9.961v13.018H-3.057z" />
      <path class="c" d="M3.452 84.866v3.255M5.08 86.493H1.825" />
    </g>
    <g>
      <path class="a" d="M-3.057 93.003H9.961v13.018H-3.057z" />
      <path class="c" d="M3.452 97.885v3.255M5.08 99.512H1.825" />
    </g>
    <g>
      <path class="a" d="M-3.057 106.021H9.961v13.018H-3.057z" />
      <path class="c" d="M3.452 110.903v3.255M5.08 112.53H1.825" />
    </g>
    <g>
      <path class="a" d="M-3.057 119.039H9.961v13.018H-3.057z" />
      <path class="c" d="M3.452 123.921v3.255M5.08 125.548H1.825" />
    </g>
    <g>
      <path class="a" d="M-3.057 132.058H9.961v13.018H-3.057z" />
      <path class="c" d="M3.452 136.94v3.255M5.08 138.567H1.825" />
    </g>
    <g>
      <path class="a" d="M-3.057 145.076H9.961v13.018H-3.057z" />
      <path class="c" d="M3.452 149.958v3.255M5.08 151.585H1.825" />
    </g>
    <g>
      <path class="a" d="M-3.057 158.095H9.961v13.018H-3.057z" />
      <path class="c" d="M3.452 162.977v3.255M5.08 164.604H1.825" />
    </g>
  </g>
  <path d="m34.102 240.217 186.624-107.761a4.913 4.913 0 0 1 7.37 4.255v44a9.213 9.213 0 0 1-4.606 7.979L36.866 296.451a4.914 4.914 0 0 1-7.37-4.255v-44a9.213 9.213 0 0 1 4.606-7.979Z" stroke="#0051d3" fill="none" />
  <g transform="translate(0 6.114)">
    <path d="M147.92 234.977a120.029 120.029 0 0 1-23.751 3.443 2.72 2.72 0 0 1-2.764-2.038l-2.26-9.067a2.716 2.716 0 0 0-2.519-2.048 105.444 105.444 0 0 1-26.065-3.922 2.7 2.7 0 0 0-3.046 1.2l-4.82 8.014a2.66 2.66 0 0 1-3.189 1.161 119.85 119.85 0 0 1-41.024-24.676 2.72 2.72 0 0 1-.461-3.37l4.8-8.042a2.737 2.737 0 0 0-.376-3.253 105.847 105.847 0 0 1-15.711-21.3 2.7 2.7 0 0 0-2.982-1.265l-9.085 2.265a2.719 2.719 0 0 1-3.1-1.483A120.14 120.14 0 0 1 .003 124.212a2.725 2.725 0 0 1 2.038-2.757l9.047-2.255a2.693 2.693 0 0 0 2.032-2.514 106.107 106.107 0 0 1 3.9-26.095 2.726 2.726 0 0 0-1.195-3.048l-7.976-4.824a2.707 2.707 0 0 1-1.167-3.208A119.833 119.833 0 0 1 31.35 38.467a2.7 2.7 0 0 1 3.369-.466l8.052 4.8a2.705 2.705 0 0 0 3.253-.374A105.776 105.776 0 0 1 67.202 26.74a2.7 2.7 0 0 0 1.263-2.986l-2.268-9.095a2.725 2.725 0 0 1 1.482-3.1A119.9 119.9 0 0 1 114.019.005a2.724 2.724 0 0 1 2.819 2.025l2.271 9.108a2.709 2.709 0 0 0 2.518 2.048 105.221 105.221 0 0 1 26.066 3.921 2.707 2.707 0 0 0 3.048-1.2l4.816-8a2.72 2.72 0 0 1 3.2-1.172 120 120 0 0 1 41.019 24.678 2.713 2.713 0 0 1 .475 3.381l-4.814 8.012a2.732 2.732 0 0 0 .375 3.253 105.154 105.154 0 0 1 15.713 21.216 2.711 2.711 0 0 0 2.985 1.264l9.053-2.258a2.721 2.721 0 0 1 3.1 1.484l.049.064a119.892 119.892 0 0 1 11.563 46.378 2.706 2.706 0 0 1-2.038 2.763l-9.065 2.26a2.719 2.719 0 0 0-2.048 2.518 105.338 105.338 0 0 1-3.926 26.1 2.748 2.748 0 0 0 1.2 3.08l8.007 4.822a2.683 2.683 0 0 1 1.165 3.2 119.773 119.773 0 0 1-24.741 41.034 2.69 2.69 0 0 1-3.374.474l-8-4.824a2.728 2.728 0 0 0-3.283.382 105.028 105.028 0 0 1-21.178 15.688 2.7 2.7 0 0 0-1.261 2.991l2.26 9.066a2.722 2.722 0 0 1-1.485 3.1 120.082 120.082 0 0 1-22.588 8.116ZM113.009 94.702a25.815 25.815 0 1 0 10.27-.464 25.814 25.814 0 0 0-10.273.464Z" fill="#ff8b00" />
    <path class="f" d="M278.683 289.713a90.588 90.588 0 0 1-17.88 2.6 2.052 2.052 0 0 1-2.078-1.536l-1.7-6.828a2.048 2.048 0 0 0-1.9-1.533 79.51 79.51 0 0 1-19.62-2.953 2.038 2.038 0 0 0-2.3.908l-3.63 6.032a2.011 2.011 0 0 1-2.405.874 90.2 90.2 0 0 1-30.874-18.574 2.038 2.038 0 0 1-.351-2.535l3.628-6.037a2.068 2.068 0 0 0-.289-2.445 79.534 79.534 0 0 1-11.8-15.969 2.054 2.054 0 0 0-2.246-.954l-6.806 1.7a2.071 2.071 0 0 1-2.338-1.112 90.436 90.436 0 0 1-8.706-34.916 2.048 2.048 0 0 1 1.544-2.074l6.812-1.7a2.023 2.023 0 0 0 1.533-1.9 79.054 79.054 0 0 1 2.942-19.656 2.074 2.074 0 0 0-.9-2.3l-6.032-3.63a2.039 2.039 0 0 1-.876-2.417 90.059 90.059 0 0 1 18.566-30.9 2.034 2.034 0 0 1 2.543-.354l6.054 3.617a2.064 2.064 0 0 0 2.452-.284 79.039 79.039 0 0 1 15.941-11.816 2.054 2.054 0 0 0 .955-2.247l-1.7-6.832a2.05 2.05 0 0 1 1.113-2.331 90.281 90.281 0 0 1 34.885-8.7 2.059 2.059 0 0 1 2.127 1.524l1.7 6.837a2.025 2.025 0 0 0 1.9 1.536 78.824 78.824 0 0 1 19.621 2.951 2.032 2.032 0 0 0 2.292-.9l3.63-6.025a2.021 2.021 0 0 1 2.4-.88 90.163 90.163 0 0 1 30.879 18.57 2.057 2.057 0 0 1 .361 2.546l-3.625 6.031a2.071 2.071 0 0 0 .288 2.477 79.141 79.141 0 0 1 11.811 15.975 2.036 2.036 0 0 0 2.246.955l6.827-1.7a2.053 2.053 0 0 1 2.329 1.12v.044a90.243 90.243 0 0 1 8.706 34.917 2.045 2.045 0 0 1-1.532 2.074l-6.828 1.7a2.037 2.037 0 0 0-1.533 1.9 79.313 79.313 0 0 1-2.934 19.635 2.06 2.06 0 0 0 .906 2.318l6.024 3.631a2.029 2.029 0 0 1 .882 2.412 90.143 90.143 0 0 1-18.678 30.828 2.037 2.037 0 0 1-2.542.36l-6.032-3.634a2.037 2.037 0 0 0-2.445.287 79.533 79.533 0 0 1-15.945 11.809 2.037 2.037 0 0 0-.955 2.245l1.7 6.828a2.068 2.068 0 0 1-1.12 2.333 90.557 90.557 0 0 1-16.997 6.098Zm-26.164-105.208a18.584 18.584 0 1 0 7.4-.333 18.584 18.584 0 0 0-7.4.333Z" />
    <path class="g" d="M135.969 184.176a67.126 67.126 0 1 1 48.894-81.371l17.46 113.429a56.382 56.382 0 1 0 41.064-68.356Z" />
    <circle cx="7.809" cy="7.809" r="7.809" transform="translate(61.006 69.13)" fill="#ffcf00" />
    <path class="i" d="M241.503 210.811c-11.607-24.932 25.087-45.353 49.071-84.2s15.277-64.941 10.438-82.483M97.746 133.057c14.95 31.834 73.437 6.756 119.938-12.191s64.128-43.068 60.41-75.734" />
  </g>
  <g transform="translate(237.789 3.805)">
    <circle class="j" cx="37.86" cy="37.86" r="37.86" transform="translate(14.333)" />
    <path class="k" d="m13.697 75.719-1.587-.108a6.721 6.721 0 0 1-6.661-6.722V47.006a8.506 8.506 0 0 0-.913-3.848 10.2 10.2 0 0 0-2-2.694 12.668 12.668 0 0 0-1.992-1.585c-.214-.138-.4-.245-.547-.331.147-.073.331-.183.543-.312a11.534 11.534 0 0 0 2-1.553 9.88 9.88 0 0 0 2-2.74 9.147 9.147 0 0 0 .913-4.043V8.079a6.721 6.721 0 0 1 6.722-6.722h1.526M90.754 1.358l1.586.108a6.72 6.72 0 0 1 6.661 6.722v21.883a8.506 8.506 0 0 0 .913 3.848 10.161 10.161 0 0 0 2 2.694 12.684 12.684 0 0 0 1.991 1.585c.214.138.4.244.547.331a7.813 7.813 0 0 0-.544.312 11.567 11.567 0 0 0-2 1.553 9.861 9.861 0 0 0-2 2.74 9.158 9.158 0 0 0-.913 4.043v21.821a6.722 6.722 0 0 1-6.72 6.722h-1.524" />
    <path class="l" d="m36.097 18.691-6.184-.079" />
    <path class="g" d="m32.185 22.674 5.965.076" />
    <path class="m" d="m39.926 22.773 5.965.076" />
    <path class="g" d="m32.134 26.706 12.388.157" />
    <path class="m" d="m46.298 26.886 19.9.252" />
    <path class="g" d="m32.083 30.739 9.321.117" />
    <path class="n" d="m43.18 30.879 20.972.266" />
    <path class="g" d="m32.031 34.771 20.063.254" />
    <path d="m53.871 35.048 19.9.252" stroke="#ffd000" stroke-width="2" fill="none" />
    <path class="g" d="m31.98 38.804 15.159.192M48.916 39.018l15.767.2" />
    <path class="m" d="m66.459 39.24 10.603.134" />
    <path class="l" d="m35.789 42.886-6.184-.079M35.737 46.918l-6.184-.079" />
    <g>
      <path class="g" d="m31.826 50.9 12.553.16" />
      <path class="m" d="m46.155 51.083 4.708.06M52.641 51.164l3.988.051" />
      <path class="g" d="m31.775 54.933 10.458.132" />
      <path class="n" d="m44.01 55.088 4.754.06" />
    </g>
    <path class="l" d="m35.583 59.015-6.184-.079" />
  </g>
  <path class="p" d="M197.567 313.194v4.692M197.567 322.576v4.692M195.222 320.231h-4.692M204.604 320.231h-4.692" />
  <g>
    <path class="f" d="m130.052 305.664 24.853-14.345a1.039 1.039 0 0 1 1.558.9v9.292a1.944 1.944 0 0 1-.973 1.684l-24.855 14.341a1.037 1.037 0 0 1-1.556-.9v-9.292a1.946 1.946 0 0 1 .973-1.68Z" />
    <path class="f" d="m155.489 291.04-24.854-14.345a1.037 1.037 0 0 0-1.556.9v9.292a1.946 1.946 0 0 0 .973 1.686l24.853 14.345a1.038 1.038 0 0 0 1.418-.38 1.026 1.026 0 0 0 .139-.516v-9.299a1.944 1.944 0 0 0-.973-1.683Z" />
    <path class="f" d="m153.958 303.369-.009-12.507a.407.407 0 0 1 .61-.351l10.826 6.26a.407.407 0 0 1 0 .7l-10.818 6.246a.407.407 0 0 1-.609-.351Z" />
  </g>
  <path class="p" d="m207.498 15.291-7.2-4.163c-.013-.008-.023-.021-.036-.028L182.086.608a.757.757 0 0 0-1.037.271.765.765 0 0 0-.1.386v6.794a1.423 1.423 0 0 0 .712 1.232l10.832 6.253-10.826 6.249a1.422 1.422 0 0 0-.712 1.234v6.794a.759.759 0 0 0 1.141.657l18.176-10.493c.013-.007.023-.019.035-.027l7.2-4.152a.293.293 0 0 0 .109-.109.3.3 0 0 0-.118-.406Z" />
  <path class="j" d="m2.138 274.215 52.63-30.39a2.078 2.078 0 0 1 3.117 1.8v8.125a2.079 2.079 0 0 1-1.04 1.8L4.219 285.939a2.078 2.078 0 0 1-3.117-1.8v-8.121a2.082 2.082 0 0 1 1.036-1.803ZM316.075 160.219l34.583-19.969a1.365 1.365 0 0 1 2.048 1.183v5.339a1.366 1.366 0 0 1-.684 1.183l-34.58 19.968a1.365 1.365 0 0 1-2.048-1.182v-5.336a1.367 1.367 0 0 1 .681-1.186Z" />
  <path class="g" d="m294.789 213.93 14.254-24.922 28.71.02M27.557 123.827l26.576-10.864 22.61 17.692" />
</svg>