<svg width="300" height="241" viewBox="0 0 300 241" fill="none" xmlns="http://www.w3.org/2000/svg">
<g clip-path="url(#clip0)">
<path d="M263.91 81.1716C260.262 81.1684 256.635 81.732 253.157 82.8429C253.487 80.1952 253.654 77.5285 253.657 74.8599C253.008 35.8243 221.154 4.71109 182.508 5.36687C154.309 5.84529 129.149 23.3765 118.691 49.8355C98.4656 37.1674 71.9034 43.4601 59.3628 63.8897C55.28 70.5402 53.0481 78.1799 52.9019 86.0038C47.457 82.8284 41.2785 81.1608 34.9913 81.1716C15.6661 81.1716 0 96.9961 0 116.517C0 136.037 15.6661 151.862 34.9913 151.862C37.7519 151.862 39.9901 149.601 39.9901 146.813C39.9901 144.024 37.7519 141.763 34.9913 141.763C21.1891 141.537 10.1825 130.051 10.4068 116.11C10.6311 102.168 22.0014 91.0499 35.8036 91.2765C44.2053 91.4147 51.9759 95.8076 56.486 102.969C57.9981 105.302 61.0961 105.955 63.4062 104.429C65.4025 103.109 66.1973 100.548 65.3038 98.3133C63.7298 94.4784 62.9082 90.3714 62.8844 86.2202C63.085 67.9215 77.9107 53.24 96.0262 53.3997C104.098 53.4319 111.885 56.4167 117.946 61.8018C120.026 63.6347 123.184 63.4163 124.998 61.3145C125.49 60.7452 125.849 60.0711 126.049 59.3428C135.195 27.1938 168.411 8.62178 200.237 17.8608C225.507 25.1962 243.098 48.3056 243.625 74.8593C243.603 80.1522 242.872 85.418 241.45 90.5122C240.711 93.199 242.267 95.9825 244.927 96.7291C246.366 97.1331 247.909 96.8661 249.133 96.0008C253.457 92.9207 258.619 91.2683 263.91 91.2696C277.713 91.2696 288.903 102.573 288.903 116.516C288.903 130.459 277.713 141.763 263.91 141.763C261.149 141.763 258.911 144.024 258.911 146.812C258.911 149.6 261.149 151.861 263.91 151.861C283.235 151.861 298.901 136.037 298.901 116.516C298.901 96.9961 283.235 81.1716 263.91 81.1716Z" fill="#5a9cd2"/>
<g clip-path="url(#clip1)">
<path d="M287.048 198.214L281.187 171.064C279.846 166.009 274.68 162.99 269.628 164.358C268.028 164.791 266.635 165.616 265.528 166.716C263.749 162.388 259.007 159.95 254.373 161.204C252.776 161.64 251.383 162.465 250.271 163.556C248.487 159.236 243.747 156.794 239.117 158.051C237.55 158.475 236.183 159.275 235.083 160.333L231.889 148.293C230.548 143.238 225.382 140.219 220.33 141.587C215.322 142.939 212.337 148.159 213.68 153.221L225.951 199.479L207.17 192.168C202.133 190.126 196.289 192.163 193.574 196.915C191.537 200.477 192.75 205.05 196.277 207.107L236.487 230.557C242.752 234.21 250.05 235.181 257.039 233.289L267.619 230.425C274.599 228.54 280.432 224.015 284.044 217.696C287.417 211.794 288.483 204.875 287.048 198.214ZM266.345 225.621L255.764 228.485C250.047 230.033 244.075 229.238 238.949 226.249L198.739 202.799C197.562 202.112 197.158 200.59 197.838 199.401C199.335 196.782 202.559 195.658 205.37 196.798L228.697 205.876C229.561 206.214 230.536 206.03 231.229 205.406C231.914 204.783 232.199 203.818 231.959 202.914L218.436 151.934C217.796 149.522 219.219 147.032 221.643 146.373C222.838 146.053 224.051 146.249 225.045 146.828C226.038 147.408 226.813 148.371 227.134 149.58L236.151 183.574C236.503 184.899 237.854 185.687 239.166 185.332C239.821 185.151 240.345 184.722 240.66 184.171C240.976 183.619 241.082 182.946 240.905 182.28L237.223 168.399C236.583 165.987 238.004 163.501 240.432 162.844C242.813 162.199 245.282 163.639 245.92 166.044L249.604 179.933C249.956 181.258 251.308 182.046 252.62 181.691C253.274 181.51 253.799 181.081 254.114 180.529C254.429 179.978 254.535 179.305 254.359 178.639L252.479 171.552C251.839 169.14 253.26 166.654 255.688 165.997C258.069 165.352 260.538 166.792 261.176 169.198L263.065 176.318C263.071 176.328 263.067 176.325 263.067 176.325L263.069 176.332C263.07 176.339 263.07 176.339 263.07 176.339C263.072 176.345 263.072 176.345 263.072 176.345L263.076 176.348C263.081 176.35 263.078 176.354 263.078 176.354C263.456 177.643 264.788 178.397 266.075 178.045C267.387 177.69 268.167 176.324 267.816 174.999L267.738 174.707C267.428 173.539 267.587 172.316 268.185 171.269C268.784 170.222 269.746 169.474 270.943 169.15C273.333 168.51 275.787 169.947 276.405 172.238L282.24 199.275C283.41 204.719 282.54 210.38 279.779 215.209C276.825 220.378 272.056 224.076 266.345 225.621Z" fill="#5a9cd2"/>
<path d="M244.804 153.005C245.666 144.255 241.374 135.767 233.869 131.389C223.288 125.219 209.707 128.895 203.599 139.582C199.265 147.164 199.75 156.682 204.825 163.829C205.037 164.125 205.301 164.359 205.595 164.531C206.405 165.003 207.452 164.982 208.264 164.398C209.366 163.594 209.617 162.04 208.828 160.925C204.876 155.364 204.495 147.962 207.863 142.069C212.615 133.756 223.176 130.897 231.407 135.697C237.241 139.099 240.575 145.702 239.905 152.514C239.767 153.88 240.755 155.106 242.108 155.234C243.463 155.37 244.67 154.374 244.804 153.005Z" fill="#5a9cd2"/>
</g>
<g clip-path="url(#clip2)">
<path d="M143.622 183.949L79.2551 207.613C73.6755 209.665 67.4898 206.751 65.4589 201.115L40.6927 132.382C38.6619 126.746 41.5463 120.498 47.126 118.446L104.136 97.4865C105.659 96.9267 107.345 97.7207 107.899 99.2588L112.25 111.333L116.847 109.643C118.37 109.083 120.056 109.877 120.61 111.415L145.376 180.148C145.93 181.686 145.144 183.389 143.622 183.949ZM49.4883 139.453L70.9761 199.087C71.8984 201.646 74.7129 202.972 77.2471 202.04L138.855 179.39L116.097 116.23L54.4889 138.881C52.8338 139.489 51.126 139.663 49.4883 139.453ZM49.134 124.019C46.5998 124.951 45.2875 127.794 46.2098 130.354C47.1322 132.914 49.9466 134.239 52.4808 133.308L106.733 113.362L103.386 104.074L49.134 124.019Z" fill="#5a9cd2"/>
<path d="M87.6903 176.112C87.065 176.342 86.3634 176.36 85.6919 176.114L71.3108 170.883C70.4918 170.587 69.8452 169.936 69.5466 169.108C69.2481 168.279 69.3298 167.362 69.7686 166.603L77.4561 153.258C78.2673 151.845 80.0656 151.356 81.4724 152.185C82.8764 153.007 83.3515 154.822 82.5329 156.238L76.6159 166.509L87.6843 170.535C89.2087 171.089 90.0001 172.788 89.4511 174.328C89.1414 175.191 88.4811 175.821 87.6903 176.112Z" fill="#5a9cd2"/>
<path d="M109.759 167.998C108.968 168.289 108.061 168.235 107.279 167.774C105.875 166.952 105.4 165.137 106.218 163.721L112.132 153.452L101.063 149.426C99.5387 148.871 98.7474 147.172 99.2963 145.632C99.8463 144.084 101.524 143.294 103.056 143.846L117.437 149.078C118.257 149.378 118.904 150.028 119.201 150.853C119.498 151.677 119.418 152.599 118.979 153.358L111.291 166.703C110.933 167.327 110.384 167.768 109.759 167.998Z" fill="#5a9cd2"/>
<path d="M96.3852 177.122C96.1387 177.213 95.8692 177.274 95.5887 177.293C93.9722 177.408 92.567 176.178 92.4534 174.546L90.4386 145.834C90.3228 144.206 91.5115 142.789 93.1588 142.667C94.7753 142.553 96.1805 143.782 96.294 145.415L98.3088 174.126C98.4048 175.48 97.5879 176.68 96.3852 177.122Z" fill="#5a9cd2"/>
</g>
<g clip-path="url(#clip3)">
<path d="M215.71 72.6634L213.404 71.8156C213.091 71.7005 212.837 71.4637 212.696 71.1573C212.556 70.8509 212.542 70.5 212.656 70.1817C212.771 69.8634 213.005 69.6039 213.308 69.4602C213.61 69.3166 213.956 69.3005 214.269 69.4156L216.575 70.2633C216.888 70.3784 217.142 70.6152 217.283 70.9216C217.423 71.228 217.437 71.5789 217.323 71.8972C217.208 72.2155 216.974 72.475 216.671 72.6187C216.369 72.7624 216.023 72.7784 215.71 72.6634Z" fill="#5a9cd2"/>
<path d="M210.951 115.544C210.638 115.429 210.383 115.192 210.243 114.886C210.103 114.579 210.088 114.228 210.203 113.91L211.461 110.418C211.576 110.1 211.81 109.84 212.113 109.697C212.415 109.553 212.761 109.537 213.074 109.652C213.387 109.767 213.641 110.004 213.781 110.31C213.922 110.617 213.936 110.968 213.821 111.286L212.563 114.778C212.448 115.096 212.214 115.356 211.912 115.499C211.609 115.643 211.264 115.659 210.951 115.544Z" fill="#5a9cd2"/>
<path d="M196.686 147.713L121.16 119.945C120.221 119.6 119.457 118.89 119.036 117.971C118.616 117.051 118.572 115.999 118.917 115.044L146.59 38.2426C146.934 37.2878 147.637 36.5093 148.544 36.0782C149.451 35.6472 150.489 35.599 151.428 35.9442L226.954 63.7116C227.893 64.0568 228.657 64.7672 229.078 65.6864C229.498 66.6056 229.541 67.6585 229.197 68.6132L216.848 102.886C216.733 103.204 216.499 103.464 216.197 103.607C215.894 103.751 215.548 103.767 215.235 103.652C214.922 103.537 214.668 103.3 214.528 102.994C214.387 102.687 214.373 102.336 214.488 102.018L226.837 67.7455C226.952 67.4273 226.937 67.0763 226.797 66.7699C226.657 66.4635 226.402 66.2267 226.089 66.1116L150.563 38.3442C150.25 38.2291 149.904 38.2452 149.602 38.3889C149.299 38.5326 149.065 38.7921 148.95 39.1104L121.277 115.912C121.162 116.23 121.176 116.581 121.317 116.887C121.457 117.194 121.711 117.43 122.024 117.545L197.551 145.313C197.864 145.428 198.21 145.412 198.512 145.268C198.815 145.124 199.049 144.865 199.164 144.547L202.865 134.275C202.98 133.956 203.214 133.697 203.516 133.553C203.819 133.409 204.164 133.393 204.477 133.508C204.79 133.623 205.045 133.86 205.185 134.167C205.325 134.473 205.34 134.824 205.225 135.142L201.524 145.414C201.18 146.369 200.477 147.148 199.57 147.579C198.662 148.01 197.625 148.058 196.686 147.713Z" fill="#5a9cd2"/>
<path d="M206.639 127.508C206.327 127.393 206.072 127.156 205.932 126.85C205.791 126.544 205.777 126.193 205.892 125.874L207.176 122.31C207.291 121.992 207.525 121.733 207.827 121.589C208.13 121.445 208.476 121.429 208.789 121.544C209.101 121.659 209.356 121.896 209.496 122.202C209.637 122.509 209.651 122.86 209.536 123.178L208.252 126.742C208.137 127.06 207.903 127.32 207.601 127.464C207.298 127.607 206.952 127.623 206.639 127.508Z" fill="#5a9cd2"/>
<path d="M221.967 84.97L141.72 55.4671C141.407 55.352 141.153 55.1152 141.012 54.8088C140.872 54.5024 140.858 54.1515 140.972 53.8332C141.087 53.5149 141.321 53.2554 141.624 53.1117C141.926 52.968 142.272 52.952 142.585 53.067L222.832 82.5699C223.145 82.685 223.399 82.9218 223.54 83.2282C223.68 83.5346 223.694 83.8855 223.58 84.2038C223.465 84.5221 223.231 84.7816 222.928 84.9253C222.626 85.069 222.28 85.085 221.967 84.97Z" fill="#5a9cd2"/>
<path d="M206.215 69.1725L203.909 68.3247C203.596 68.2097 203.341 67.9729 203.201 67.6665C203.061 67.3601 203.047 67.0091 203.161 66.6909C203.276 66.3726 203.51 66.1131 203.813 65.9694C204.115 65.8257 204.461 65.8096 204.774 65.9247L207.08 66.7725C207.393 66.8876 207.647 67.1243 207.788 67.4307C207.928 67.7372 207.942 68.0881 207.827 68.4064C207.713 68.7246 207.478 68.9842 207.176 69.1278C206.874 69.2715 206.528 69.2876 206.215 69.1725Z" fill="#5a9cd2"/>
<path d="M196.72 65.6817L194.414 64.8339C194.101 64.7188 193.846 64.4821 193.706 64.1756C193.566 63.8692 193.552 63.5183 193.666 63.2C193.781 62.8818 194.015 62.6222 194.318 62.4786C194.62 62.3349 194.966 62.3188 195.279 62.4339L197.585 63.2816C197.898 63.3967 198.152 63.6335 198.292 63.9399C198.433 64.2463 198.447 64.5973 198.332 64.9155C198.218 65.2338 197.983 65.4933 197.681 65.637C197.379 65.7807 197.033 65.7968 196.72 65.6817Z" fill="#5a9cd2"/>
<path d="M187.387 62.2506L153.754 49.8854C153.441 49.7703 153.187 49.5336 153.046 49.2272C152.906 48.9207 152.892 48.5698 153.007 48.2515C153.121 47.9333 153.356 47.6737 153.658 47.5301C153.96 47.3864 154.306 47.3703 154.619 47.4854L188.252 59.8506C188.565 59.9656 188.82 60.2024 188.96 60.5088C189.1 60.8152 189.114 61.1662 189 61.4844C188.885 61.8027 188.651 62.0622 188.348 62.2059C188.046 62.3496 187.7 62.3657 187.387 62.2506Z" fill="#5a9cd2"/>
<path d="M184.641 125.406L181.763 124.348C181.45 124.232 181.196 123.996 181.055 123.689C180.915 123.383 180.901 123.032 181.016 122.714C181.13 122.395 181.364 122.136 181.667 121.992C181.969 121.848 182.315 121.832 182.628 121.947L185.506 123.006C185.653 123.059 185.815 123.051 185.957 122.983C186.099 122.916 186.209 122.794 186.263 122.645L189.459 113.775C189.755 112.952 190.342 112.269 191.105 111.859L194.894 109.818C195.107 109.705 195.27 109.515 195.352 109.287C195.435 109.058 195.43 108.807 195.339 108.583L193.735 104.567C193.41 103.757 193.394 102.851 193.692 102.026L196.535 94.1375C196.589 93.9881 196.582 93.8235 196.516 93.6798C196.45 93.536 196.331 93.4246 196.185 93.37L193.307 92.3118C192.994 92.1967 192.739 91.96 192.599 91.6535C192.458 91.3471 192.444 90.9962 192.559 90.6779C192.673 90.3597 192.908 90.1001 193.21 89.9565C193.513 89.8128 193.858 89.7967 194.171 89.9118L197.05 90.97C197.822 91.2553 198.45 91.8403 198.796 92.5967C199.142 93.3531 199.177 94.2193 198.895 95.0052L196.053 102.894C195.97 103.123 195.975 103.374 196.066 103.599L197.67 107.612C197.996 108.422 198.012 109.327 197.715 110.151C197.418 110.975 196.83 111.658 196.065 112.066L192.273 114.111C192.061 114.224 191.898 114.413 191.815 114.641L188.618 123.511C188.335 124.296 187.757 124.935 187.012 125.29C186.266 125.645 185.414 125.687 184.641 125.406Z" fill="#5a9cd2"/>
<path d="M147.46 111.736L144.582 110.678C143.809 110.392 143.182 109.807 142.836 109.051C142.49 108.295 142.454 107.428 142.736 106.642L145.932 97.7719C146.014 97.5434 146.009 97.2927 145.918 97.0684L144.315 93.0405C143.989 92.2306 143.973 91.325 144.27 90.501C144.567 89.6769 145.155 88.9937 145.92 88.5848L149.7 86.554C149.913 86.4406 150.077 86.2507 150.159 86.0216L153.002 78.1327C153.286 77.3474 153.865 76.7072 154.611 76.3524C155.357 75.9975 156.211 75.9571 156.984 76.2398L159.862 77.298C160.175 77.4131 160.43 77.6499 160.57 77.9563C160.71 78.2627 160.724 78.6137 160.61 78.9319C160.495 79.2502 160.261 79.5097 159.958 79.6534C159.656 79.7971 159.31 79.8131 158.997 79.6981L156.125 78.642C155.978 78.5887 155.816 78.5967 155.674 78.6642C155.532 78.7318 155.422 78.8534 155.368 79.0026L152.526 86.8915C152.229 87.7168 151.64 88.4013 150.874 88.8108L147.094 90.8416C146.882 90.9548 146.718 91.1443 146.636 91.373C146.554 91.6017 146.558 91.853 146.649 92.0776L148.252 96.1039C148.576 96.9133 148.591 97.8175 148.294 98.6401L145.097 107.511C145.044 107.66 145.051 107.825 145.116 107.968C145.182 108.112 145.301 108.224 145.447 108.278L148.326 109.336C148.639 109.451 148.893 109.688 149.034 109.995C149.174 110.301 149.188 110.652 149.073 110.97C148.959 111.288 148.724 111.548 148.422 111.692C148.12 111.835 147.774 111.851 147.461 111.736L147.46 111.736Z" fill="#5a9cd2"/>
<path d="M181.116 114.557L180.408 114.297C180.095 114.182 179.84 113.945 179.7 113.639C179.56 113.332 179.545 112.981 179.66 112.663C179.775 112.345 180.009 112.085 180.311 111.942C180.614 111.798 180.959 111.782 181.272 111.897L181.98 112.157C182.293 112.272 182.548 112.509 182.688 112.815C182.828 113.122 182.843 113.473 182.728 113.791C182.613 114.109 182.379 114.369 182.077 114.513C181.774 114.656 181.429 114.672 181.116 114.557Z" fill="#5a9cd2"/>
<path d="M172.372 111.342L171.663 111.082C171.35 110.967 171.096 110.73 170.956 110.424C170.815 110.117 170.801 109.766 170.916 109.448C171.03 109.13 171.265 108.87 171.567 108.727C171.87 108.583 172.215 108.567 172.528 108.682L173.236 108.942C173.549 109.057 173.804 109.294 173.944 109.601C174.084 109.907 174.099 110.258 173.984 110.576C173.869 110.894 173.635 111.154 173.333 111.298C173.03 111.441 172.684 111.457 172.372 111.342Z" fill="#5a9cd2"/>
<path d="M163.639 108.132L162.931 107.871C162.618 107.756 162.363 107.52 162.223 107.213C162.083 106.907 162.068 106.556 162.183 106.237C162.298 105.919 162.532 105.66 162.834 105.516C163.137 105.372 163.482 105.356 163.795 105.471L164.503 105.732C164.816 105.847 165.071 106.084 165.211 106.39C165.351 106.696 165.366 107.047 165.251 107.366C165.136 107.684 164.902 107.943 164.6 108.087C164.297 108.231 163.952 108.247 163.639 108.132Z" fill="#5a9cd2"/>
<path d="M154.892 104.916L154.183 104.656C153.87 104.54 153.616 104.304 153.476 103.997C153.335 103.691 153.321 103.34 153.436 103.022C153.55 102.703 153.785 102.444 154.087 102.3C154.39 102.157 154.735 102.14 155.048 102.256L155.756 102.516C156.069 102.631 156.324 102.868 156.464 103.174C156.604 103.481 156.619 103.831 156.504 104.15C156.389 104.468 156.155 104.728 155.853 104.871C155.55 105.015 155.205 105.031 154.892 104.916Z" fill="#5a9cd2"/>
</g>
</g>
<defs>
<clipPath id="clip0">
<rect width="300" height="240.284" fill="white"/>
</clipPath>
<clipPath id="clip1">
<rect width="108.608" height="109.156" fill="white" transform="matrix(0.863833 0.503778 -0.496232 0.86819 220.833 109.429)"/>
</clipPath>
<clipPath id="clip2">
<rect width="94.051" height="94.7787" fill="white" transform="matrix(0.938577 -0.345069 0.338991 0.94079 33.3335 123.517)"/>
</clipPath>
<clipPath id="clip3">
<rect width="93.0425" height="94.3902" fill="white" transform="matrix(0.938577 0.345069 -0.338991 0.94079 146.392 31.3748)"/>
</clipPath>
</defs>
</svg>
