<?xml version="1.0" standalone="no"?>
<!DOCTYPE svg PUBLIC "-//W3C//DTD SVG 20010904//EN"
 "http://www.w3.org/TR/2001/REC-SVG-20010904/DTD/svg10.dtd">
<svg version="1.0" xmlns="http://www.w3.org/2000/svg"
 width="200.000000pt" height="200.000000pt" viewBox="0 0 200.000000 200.000000"
 preserveAspectRatio="xMidYMid meet">

<g transform="translate(0.000000,200.000000) scale(0.100000,-0.100000)"
fill="#000000" stroke="none">
<path d="M0 1000 l0 -1000 1000 0 1000 0 0 1000 0 1000 -1000 0 -1000 0 0
-1000z m1172 496 l2 -97 -240 -240 -239 -239 172 0 172 0 -1 93 -1 92 71 3 72
3 0 -296 0 -295 -70 0 c-38 0 -70 3 -70 8 0 4 -2 59 -3 122 l-2 115 -227 3
-228 2 0 123 0 122 292 292 c161 161 294 291 295 289 2 -2 4 -47 5 -100z"/>
</g>
</svg>
